<svg width="1280" height="640" viewBox="0 0 1280 640" fill="none" xmlns="http://www.w3.org/2000/svg">
<rect width="1280" height="640" fill="white"/>
<path d="M464.725 217V168.7H472.9V189.7H496.15V168.7H504.325V217H496.15V196H472.9V217H464.725ZM531.797 217.75C525.597 217.75 520.797 216.225 517.397 213.175C513.997 210.125 512.297 205.45 512.297 199.15C512.297 193.45 513.747 188.95 516.647 185.65C519.547 182.35 523.947 180.7 529.847 180.7C535.247 180.7 539.297 182.125 541.997 184.975C544.747 187.775 546.122 191.4 546.122 195.85V202.45H520.097C520.497 205.9 521.747 208.275 523.847 209.575C525.947 210.875 529.147 211.525 533.447 211.525C535.247 211.525 537.097 211.35 538.997 211C540.897 210.65 542.547 210.2 543.947 209.65V215.65C542.347 216.35 540.497 216.875 538.397 217.225C536.347 217.575 534.147 217.75 531.797 217.75ZM520.097 197.125H538.922V194.65C538.922 192.2 538.247 190.3 536.897 188.95C535.547 187.55 533.272 186.85 530.072 186.85C526.272 186.85 523.647 187.675 522.197 189.325C520.797 190.975 520.097 193.575 520.097 197.125ZM562.93 217.75C560.03 217.75 557.83 217.05 556.33 215.65C554.83 214.2 554.08 211.825 554.08 208.525V166.45H562.255V207.775C562.255 209.175 562.505 210.125 563.005 210.625C563.505 211.125 564.255 211.375 565.255 211.375C566.455 211.375 567.605 211.225 568.705 210.925V216.85C567.755 217.2 566.83 217.425 565.93 217.525C565.08 217.675 564.08 217.75 562.93 217.75ZM575.464 174.025V167.275H584.389V174.025H575.464ZM576.139 217V187.675H570.739L571.489 181.45H584.314V217H576.139ZM610.876 217.75C604.476 217.75 599.776 216.15 596.776 212.95C593.826 209.75 592.351 205.175 592.351 199.225C592.351 193.275 593.851 188.7 596.851 185.5C599.851 182.3 604.526 180.7 610.876 180.7C617.276 180.7 621.976 182.3 624.976 185.5C627.976 188.7 629.476 193.275 629.476 199.225C629.476 205.175 627.976 209.75 624.976 212.95C622.026 216.15 617.326 217.75 610.876 217.75ZM610.876 210.85C614.626 210.85 617.276 209.95 618.826 208.15C620.426 206.3 621.226 203.325 621.226 199.225C621.226 195.125 620.426 192.175 618.826 190.375C617.276 188.575 614.626 187.675 610.876 187.675C607.176 187.675 604.526 188.575 602.926 190.375C601.376 192.175 600.601 195.125 600.601 199.225C600.601 203.325 601.376 206.3 602.926 208.15C604.526 209.95 607.176 210.85 610.876 210.85ZM648.914 217.75C646.464 217.75 644.114 217.575 641.864 217.225C639.664 216.875 637.839 216.45 636.389 215.95V209.05C638.089 209.7 639.964 210.2 642.014 210.55C644.064 210.9 646.014 211.075 647.864 211.075C650.664 211.075 652.664 210.825 653.864 210.325C655.064 209.825 655.664 208.85 655.664 207.4C655.664 206.35 655.289 205.525 654.539 204.925C653.839 204.325 652.764 203.775 651.314 203.275C649.914 202.775 648.114 202.175 645.914 201.475C643.814 200.775 641.989 200.025 640.439 199.225C638.889 198.375 637.689 197.3 636.839 196C635.989 194.7 635.564 193 635.564 190.9C635.564 187.65 636.739 185.15 639.089 183.4C641.439 181.6 645.214 180.7 650.414 180.7C652.464 180.7 654.414 180.85 656.264 181.15C658.114 181.45 659.689 181.825 660.989 182.275V189.1C659.589 188.55 658.039 188.125 656.339 187.825C654.689 187.525 653.139 187.375 651.689 187.375C649.089 187.375 647.114 187.6 645.764 188.05C644.464 188.5 643.814 189.4 643.814 190.75C643.814 192.15 644.489 193.15 645.839 193.75C647.239 194.3 649.464 195.075 652.514 196.075C655.314 196.925 657.539 197.825 659.189 198.775C660.839 199.725 662.014 200.875 662.714 202.225C663.464 203.525 663.839 205.225 663.839 207.325C663.839 210.825 662.564 213.45 660.014 215.2C657.464 216.9 653.764 217.75 648.914 217.75ZM689.139 217V168.7H721.989V175.075H697.314V189.7H719.214V196H697.314V217H689.139ZM730.371 174.025V167.275H739.296V174.025H730.371ZM731.046 217V187.675H725.646L726.396 181.45H739.221V217H731.046ZM748.758 217V181.45H756.258L756.633 185.2C758.233 183.95 760.133 182.9 762.333 182.05C764.583 181.15 767.058 180.7 769.758 180.7C774.358 180.7 777.708 181.775 779.808 183.925C781.908 186.075 782.958 189.425 782.958 193.975V217H774.858V194.35C774.858 191.6 774.283 189.675 773.133 188.575C772.033 187.475 769.933 186.925 766.833 186.925C764.983 186.925 763.158 187.3 761.358 188.05C759.608 188.8 758.133 189.775 756.933 190.975V217H748.758ZM802.119 217.75C799.869 217.75 797.769 217.35 795.819 216.55C793.919 215.75 792.394 214.55 791.244 212.95C790.094 211.3 789.519 209.275 789.519 206.875C789.519 203.475 790.669 200.75 792.969 198.7C795.319 196.6 798.919 195.55 803.769 195.55H815.169V193.975C815.169 192.275 814.894 190.925 814.344 189.925C813.844 188.925 812.894 188.2 811.494 187.75C810.144 187.3 808.144 187.075 805.494 187.075C801.294 187.075 797.369 187.7 793.719 188.95V182.875C795.319 182.225 797.269 181.7 799.569 181.3C801.869 180.9 804.344 180.7 806.994 180.7C812.194 180.7 816.144 181.75 818.844 183.85C821.594 185.95 822.969 189.375 822.969 194.125V217H815.994L815.469 213.4C814.019 214.8 812.219 215.875 810.069 216.625C807.969 217.375 805.319 217.75 802.119 217.75ZM804.294 211.9C806.744 211.9 808.869 211.5 810.669 210.7C812.519 209.85 814.019 208.725 815.169 207.325V201.1H803.919C801.519 201.1 799.769 201.575 798.669 202.525C797.619 203.425 797.094 204.825 797.094 206.725C797.094 208.575 797.719 209.9 798.969 210.7C800.219 211.5 801.994 211.9 804.294 211.9ZM832.035 217V181.45H839.535L839.91 185.2C841.51 183.95 843.41 182.9 845.61 182.05C847.86 181.15 850.335 180.7 853.035 180.7C857.635 180.7 860.985 181.775 863.085 183.925C865.185 186.075 866.235 189.425 866.235 193.975V217H858.135V194.35C858.135 191.6 857.56 189.675 856.41 188.575C855.31 187.475 853.21 186.925 850.11 186.925C848.26 186.925 846.435 187.3 844.635 188.05C842.885 188.8 841.41 189.775 840.21 190.975V217H832.035ZM892.137 217.75C885.887 217.75 881.162 216.175 877.962 213.025C874.762 209.825 873.162 205.225 873.162 199.225C873.162 192.975 874.912 188.325 878.412 185.275C881.962 182.225 886.687 180.7 892.587 180.7C895.037 180.7 897.087 180.875 898.737 181.225C900.437 181.575 902.062 182.125 903.612 182.875V188.95C901.012 187.65 897.862 187 894.162 187C890.062 187 886.912 187.925 884.712 189.775C882.512 191.575 881.412 194.725 881.412 199.225C881.412 203.475 882.387 206.6 884.337 208.6C886.287 210.55 889.512 211.525 894.012 211.525C897.562 211.525 900.787 210.85 903.687 209.5V215.725C902.037 216.375 900.262 216.875 898.362 217.225C896.512 217.575 894.437 217.75 892.137 217.75ZM928.184 217.75C921.984 217.75 917.184 216.225 913.784 213.175C910.384 210.125 908.684 205.45 908.684 199.15C908.684 193.45 910.134 188.95 913.034 185.65C915.934 182.35 920.334 180.7 926.234 180.7C931.634 180.7 935.684 182.125 938.384 184.975C941.134 187.775 942.509 191.4 942.509 195.85V202.45H916.484C916.884 205.9 918.134 208.275 920.234 209.575C922.334 210.875 925.534 211.525 929.834 211.525C931.634 211.525 933.484 211.35 935.384 211C937.284 210.65 938.934 210.2 940.334 209.65V215.65C938.734 216.35 936.884 216.875 934.784 217.225C932.734 217.575 930.534 217.75 928.184 217.75ZM916.484 197.125H935.309V194.65C935.309 192.2 934.634 190.3 933.284 188.95C931.934 187.55 929.659 186.85 926.459 186.85C922.659 186.85 920.034 187.675 918.584 189.325C917.184 190.975 916.484 193.575 916.484 197.125Z" fill="black"/>
<path d="M428.748 375.51C423.546 375.51 419.653 374.15 417.069 371.43C414.485 368.676 413.193 364.426 413.193 358.68C413.193 352.696 414.485 348.361 417.069 345.675C419.653 342.989 423.546 341.646 428.748 341.646C433.984 341.646 437.877 342.989 440.427 345.675C443.011 348.361 444.303 352.696 444.303 358.68C444.303 364.426 443.011 368.676 440.427 371.43C437.877 374.15 433.984 375.51 428.748 375.51ZM428.748 370.818C432.182 370.818 434.698 369.883 436.296 368.013C437.928 366.109 438.744 362.998 438.744 358.68C438.744 354.124 437.928 350.945 436.296 349.143C434.698 347.307 432.182 346.389 428.748 346.389C425.348 346.389 422.832 347.307 421.2 349.143C419.602 350.945 418.803 354.124 418.803 358.68C418.803 362.998 419.602 366.109 421.2 368.013C422.832 369.883 425.348 370.818 428.748 370.818ZM449.724 386.016V350.826H454.518L454.824 353.223C455.912 352.237 457.102 351.506 458.394 351.03C459.686 350.554 461.216 350.316 462.984 350.316C466.452 350.316 469.155 351.268 471.093 353.172C473.031 355.042 474 358.153 474 362.505C474 366.857 472.997 370.121 470.991 372.297C468.985 374.439 466.248 375.51 462.78 375.51C459.856 375.51 457.357 374.83 455.283 373.47V386.016H449.724ZM461.352 371.328C466.044 371.328 468.39 368.37 468.39 362.454C468.39 359.598 467.863 357.575 466.809 356.385C465.755 355.161 463.987 354.549 461.505 354.549C459.023 354.549 456.949 355.399 455.283 357.099V369.186C456.065 369.832 456.932 370.359 457.884 370.767C458.87 371.141 460.026 371.328 461.352 371.328ZM491.647 375.51C487.431 375.51 484.167 374.473 481.855 372.399C479.543 370.325 478.387 367.146 478.387 362.862C478.387 358.986 479.373 355.926 481.345 353.682C483.317 351.438 486.309 350.316 490.321 350.316C493.993 350.316 496.747 351.285 498.583 353.223C500.453 355.127 501.388 357.592 501.388 360.618V365.106H483.691C483.963 367.452 484.813 369.067 486.241 369.951C487.669 370.835 489.845 371.277 492.769 371.277C493.993 371.277 495.251 371.158 496.543 370.92C497.835 370.682 498.957 370.376 499.909 370.002V374.082C498.821 374.558 497.563 374.915 496.135 375.153C494.741 375.391 493.245 375.51 491.647 375.51ZM483.691 361.485H496.492V359.802C496.492 358.136 496.033 356.844 495.115 355.926C494.197 354.974 492.65 354.498 490.474 354.498C487.89 354.498 486.105 355.059 485.119 356.181C484.167 357.303 483.691 359.071 483.691 361.485ZM506.8 375V350.826H511.9L512.155 353.376C513.243 352.526 514.535 351.812 516.031 351.234C517.561 350.622 519.244 350.316 521.08 350.316C524.208 350.316 526.486 351.047 527.914 352.509C529.342 353.971 530.056 356.249 530.056 359.343V375H524.548V359.598C524.548 357.728 524.157 356.419 523.375 355.671C522.627 354.923 521.199 354.549 519.091 354.549C517.833 354.549 516.592 354.804 515.368 355.314C514.178 355.824 513.175 356.487 512.359 357.303V375H506.8ZM556.096 375.51C554.43 375.51 552.832 375.391 551.302 375.153C549.806 374.915 548.565 374.626 547.579 374.286V369.594C548.735 370.036 550.01 370.376 551.404 370.614C552.798 370.852 554.124 370.971 555.382 370.971C557.286 370.971 558.646 370.801 559.462 370.461C560.278 370.121 560.686 369.458 560.686 368.472C560.686 367.758 560.431 367.197 559.921 366.789C559.445 366.381 558.714 366.007 557.728 365.667C556.776 365.327 555.552 364.919 554.056 364.443C552.628 363.967 551.387 363.457 550.333 362.913C549.279 362.335 548.463 361.604 547.885 360.72C547.307 359.836 547.018 358.68 547.018 357.252C547.018 355.042 547.817 353.342 549.415 352.152C551.013 350.928 553.58 350.316 557.116 350.316C558.51 350.316 559.836 350.418 561.094 350.622C562.352 350.826 563.423 351.081 564.307 351.387V356.028C563.355 355.654 562.301 355.365 561.145 355.161C560.023 354.957 558.969 354.855 557.983 354.855C556.215 354.855 554.872 355.008 553.954 355.314C553.07 355.62 552.628 356.232 552.628 357.15C552.628 358.102 553.087 358.782 554.005 359.19C554.957 359.564 556.47 360.091 558.544 360.771C560.448 361.349 561.961 361.961 563.083 362.607C564.205 363.253 565.004 364.035 565.48 364.953C565.99 365.837 566.245 366.993 566.245 368.421C566.245 370.801 565.378 372.586 563.644 373.776C561.91 374.932 559.394 375.51 556.096 375.51ZM582.525 375.51C578.173 375.51 574.977 374.422 572.937 372.246C570.931 370.07 569.928 366.959 569.928 362.913C569.928 358.867 570.948 355.756 572.988 353.58C575.028 351.404 578.207 350.316 582.525 350.316C586.877 350.316 590.073 351.404 592.113 353.58C594.153 355.756 595.173 358.867 595.173 362.913C595.173 366.959 594.153 370.07 592.113 372.246C590.107 374.422 586.911 375.51 582.525 375.51ZM582.525 370.818C585.075 370.818 586.877 370.206 587.931 368.982C589.019 367.724 589.563 365.701 589.563 362.913C589.563 360.125 589.019 358.119 587.931 356.895C586.877 355.671 585.075 355.059 582.525 355.059C580.009 355.059 578.207 355.671 577.119 356.895C576.065 358.119 575.538 360.125 575.538 362.913C575.538 365.701 576.065 367.724 577.119 368.982C578.207 370.206 580.009 370.818 582.525 370.818ZM609.303 375.51C606.413 375.51 604.186 374.711 602.622 373.113C601.092 371.515 600.327 369.169 600.327 366.075V350.826H605.886V366.075C605.886 367.877 606.328 369.203 607.212 370.053C608.096 370.903 609.456 371.328 611.292 371.328C612.652 371.328 613.91 371.073 615.066 370.563C616.222 370.053 617.225 369.373 618.075 368.523V350.826H623.583V375H618.534L618.279 372.501C617.191 373.351 615.899 374.065 614.403 374.643C612.907 375.221 611.207 375.51 609.303 375.51ZM630.067 375V350.826H635.167L635.473 353.631C636.629 352.883 638.006 352.203 639.604 351.591C641.202 350.979 642.783 350.554 644.347 350.316V354.549C643.395 354.719 642.358 354.974 641.236 355.314C640.148 355.62 639.111 355.977 638.125 356.385C637.139 356.759 636.306 357.15 635.626 357.558V375H630.067ZM659.282 375.51C655.032 375.51 651.819 374.439 649.643 372.297C647.467 370.121 646.379 366.993 646.379 362.913C646.379 358.663 647.569 355.501 649.949 353.427C652.363 351.353 655.576 350.316 659.588 350.316C661.254 350.316 662.648 350.435 663.77 350.673C664.926 350.911 666.031 351.285 667.085 351.795V355.926C665.317 355.042 663.175 354.6 660.659 354.6C657.871 354.6 655.729 355.229 654.233 356.487C652.737 357.711 651.989 359.853 651.989 362.913C651.989 365.803 652.652 367.928 653.978 369.288C655.304 370.614 657.497 371.277 660.557 371.277C662.971 371.277 665.164 370.818 667.136 369.9V374.133C666.014 374.575 664.807 374.915 663.515 375.153C662.257 375.391 660.846 375.51 659.282 375.51ZM683.794 375.51C679.578 375.51 676.314 374.473 674.002 372.399C671.69 370.325 670.534 367.146 670.534 362.862C670.534 358.986 671.52 355.926 673.492 353.682C675.464 351.438 678.456 350.316 682.468 350.316C686.14 350.316 688.894 351.285 690.73 353.223C692.6 355.127 693.535 357.592 693.535 360.618V365.106H675.838C676.11 367.452 676.96 369.067 678.388 369.951C679.816 370.835 681.992 371.277 684.916 371.277C686.14 371.277 687.398 371.158 688.69 370.92C689.982 370.682 691.104 370.376 692.056 370.002V374.082C690.968 374.558 689.71 374.915 688.282 375.153C686.888 375.391 685.392 375.51 683.794 375.51ZM675.838 361.485H688.639V359.802C688.639 358.136 688.18 356.844 687.262 355.926C686.344 354.974 684.797 354.498 682.621 354.498C680.037 354.498 678.252 355.059 677.266 356.181C676.314 357.303 675.838 359.071 675.838 361.485ZM710.7 386.016V350.826H715.494L715.8 353.223C716.888 352.237 718.078 351.506 719.37 351.03C720.662 350.554 722.192 350.316 723.96 350.316C727.428 350.316 730.131 351.268 732.069 353.172C734.007 355.042 734.976 358.153 734.976 362.505C734.976 366.857 733.973 370.121 731.967 372.297C729.961 374.439 727.224 375.51 723.756 375.51C720.832 375.51 718.333 374.83 716.259 373.47V386.016H710.7ZM722.328 371.328C727.02 371.328 729.366 368.37 729.366 362.454C729.366 359.598 728.839 357.575 727.785 356.385C726.731 355.161 724.963 354.549 722.481 354.549C719.999 354.549 717.925 355.399 716.259 357.099V369.186C717.041 369.832 717.908 370.359 718.86 370.767C719.846 371.141 721.002 371.328 722.328 371.328ZM740.384 375V350.826H745.484L745.79 353.631C746.946 352.883 748.323 352.203 749.921 351.591C751.519 350.979 753.1 350.554 754.664 350.316V354.549C753.712 354.719 752.675 354.974 751.553 355.314C750.465 355.62 749.428 355.977 748.442 356.385C747.456 356.759 746.623 357.15 745.943 357.558V375H740.384ZM769.293 375.51C764.941 375.51 761.745 374.422 759.705 372.246C757.699 370.07 756.696 366.959 756.696 362.913C756.696 358.867 757.716 355.756 759.756 353.58C761.796 351.404 764.975 350.316 769.293 350.316C773.645 350.316 776.841 351.404 778.881 353.58C780.921 355.756 781.941 358.867 781.941 362.913C781.941 366.959 780.921 370.07 778.881 372.246C776.875 374.422 773.679 375.51 769.293 375.51ZM769.293 370.818C771.843 370.818 773.645 370.206 774.699 368.982C775.787 367.724 776.331 365.701 776.331 362.913C776.331 360.125 775.787 358.119 774.699 356.895C773.645 355.671 771.843 355.059 769.293 355.059C766.777 355.059 764.975 355.671 763.887 356.895C762.833 358.119 762.306 360.125 762.306 362.913C762.306 365.701 762.833 367.724 763.887 368.982C764.975 370.206 766.777 370.818 769.293 370.818ZM789.268 345.777V341.187H795.337V345.777H789.268ZM787.483 386.934C785.511 386.934 783.828 386.662 782.434 386.118V382.089C783.012 382.259 783.556 382.378 784.066 382.446C784.61 382.548 785.103 382.599 785.545 382.599C787.143 382.599 788.248 382.31 788.86 381.732C789.506 381.154 789.829 380.202 789.829 378.876V355.059H786.157L786.667 350.826H795.337V379.386C795.337 381.664 794.674 383.483 793.348 384.843C792.056 386.237 790.101 386.934 787.483 386.934ZM813.983 375.51C809.767 375.51 806.503 374.473 804.191 372.399C801.879 370.325 800.723 367.146 800.723 362.862C800.723 358.986 801.709 355.926 803.681 353.682C805.653 351.438 808.645 350.316 812.657 350.316C816.329 350.316 819.083 351.285 820.919 353.223C822.789 355.127 823.724 357.592 823.724 360.618V365.106H806.027C806.299 367.452 807.149 369.067 808.577 369.951C810.005 370.835 812.181 371.277 815.105 371.277C816.329 371.277 817.587 371.158 818.879 370.92C820.171 370.682 821.293 370.376 822.245 370.002V374.082C821.157 374.558 819.899 374.915 818.471 375.153C817.077 375.391 815.581 375.51 813.983 375.51ZM806.027 361.485H818.828V359.802C818.828 358.136 818.369 356.844 817.451 355.926C816.533 354.974 814.986 354.498 812.81 354.498C810.226 354.498 808.441 355.059 807.455 356.181C806.503 357.303 806.027 359.071 806.027 361.485ZM841.019 375.51C836.769 375.51 833.556 374.439 831.38 372.297C829.204 370.121 828.116 366.993 828.116 362.913C828.116 358.663 829.306 355.501 831.686 353.427C834.1 351.353 837.313 350.316 841.325 350.316C842.991 350.316 844.385 350.435 845.507 350.673C846.663 350.911 847.768 351.285 848.822 351.795V355.926C847.054 355.042 844.912 354.6 842.396 354.6C839.608 354.6 837.466 355.229 835.97 356.487C834.474 357.711 833.726 359.853 833.726 362.913C833.726 365.803 834.389 367.928 835.715 369.288C837.041 370.614 839.234 371.277 842.294 371.277C844.708 371.277 846.901 370.818 848.873 369.9V374.133C847.751 374.575 846.544 374.915 845.252 375.153C843.994 375.391 842.583 375.51 841.019 375.51ZM862.522 375.51C859.938 375.51 858 374.83 856.708 373.47C855.45 372.076 854.821 370.189 854.821 367.809V355.161H851.251V350.826H854.821V345.267L860.329 343.584V350.826H866.755L866.398 355.161H860.329V367.503C860.329 368.897 860.652 369.883 861.298 370.461C861.944 371.005 862.998 371.277 864.46 371.277C865.378 371.277 866.347 371.107 867.367 370.767V374.694C866.041 375.238 864.426 375.51 862.522 375.51Z" fill="black"/>
<path d="M290.827 465V446.324H299.15C300.581 446.324 301.76 446.595 302.688 447.136C303.616 447.677 304.302 448.422 304.747 449.369C305.192 450.297 305.414 451.36 305.414 452.559C305.414 454.415 304.834 455.904 303.674 457.025C302.533 458.146 300.987 458.707 299.034 458.707H293.988V465H290.827ZM293.988 456.213H298.454C299.711 456.213 300.658 455.884 301.296 455.227C301.934 454.57 302.253 453.68 302.253 452.559C302.253 451.36 301.944 450.432 301.325 449.775C300.726 449.118 299.817 448.789 298.599 448.789H293.988V456.213ZM312.891 465.29C311.248 465.29 309.982 464.836 309.092 463.927C308.222 463.018 307.787 461.684 307.787 459.925V451.254H310.948V459.925C310.948 460.95 311.2 461.704 311.702 462.187C312.205 462.67 312.978 462.912 314.022 462.912C314.796 462.912 315.511 462.767 316.168 462.477C316.826 462.187 317.396 461.8 317.879 461.317V451.254H321.011V465H318.14L317.995 463.579C317.377 464.062 316.642 464.468 315.791 464.797C314.941 465.126 313.974 465.29 312.891 465.29ZM332.238 465.29C331.233 465.29 330.363 465.155 329.628 464.884C328.893 464.613 328.217 464.198 327.598 463.637L327.424 465H324.698V445.454H327.859V452.153C329.058 451.36 330.498 450.964 332.18 450.964C334.133 450.964 335.67 451.525 336.791 452.646C337.932 453.748 338.502 455.536 338.502 458.011C338.502 460.505 337.941 462.342 336.82 463.521C335.699 464.7 334.171 465.29 332.238 465.29ZM331.397 462.912C332.828 462.912 333.833 462.506 334.413 461.694C335.012 460.882 335.312 459.654 335.312 458.011C335.312 456.31 334.993 455.111 334.355 454.415C333.717 453.719 332.712 453.371 331.339 453.371C329.908 453.371 328.748 453.767 327.859 454.56V461.462C328.768 462.429 329.947 462.912 331.397 462.912ZM344.999 465.29C343.878 465.29 343.027 465.019 342.447 464.478C341.867 463.917 341.577 462.999 341.577 461.723V445.454H344.738V461.433C344.738 461.974 344.835 462.342 345.028 462.535C345.221 462.728 345.511 462.825 345.898 462.825C346.362 462.825 346.807 462.767 347.232 462.651V464.942C346.865 465.077 346.507 465.164 346.159 465.203C345.83 465.261 345.444 465.29 344.999 465.29ZM349.845 448.383V445.773H353.296V448.383H349.845ZM350.106 465V453.661H348.018L348.308 451.254H353.267V465H350.106ZM363.712 465.29C361.295 465.29 359.468 464.681 358.231 463.463C356.994 462.226 356.375 460.447 356.375 458.127C356.375 455.71 357.052 453.912 358.405 452.733C359.778 451.554 361.605 450.964 363.886 450.964C364.833 450.964 365.626 451.032 366.264 451.167C366.921 451.302 367.55 451.515 368.149 451.805V454.154C367.144 453.651 365.926 453.4 364.495 453.4C362.91 453.4 361.692 453.758 360.841 454.473C359.99 455.169 359.565 456.387 359.565 458.127C359.565 459.77 359.942 460.979 360.696 461.752C361.45 462.506 362.697 462.883 364.437 462.883C365.81 462.883 367.057 462.622 368.178 462.1V464.507C367.54 464.758 366.854 464.952 366.119 465.087C365.404 465.222 364.601 465.29 363.712 465.29ZM377.374 465V451.254H380.274L380.448 452.849C381.105 452.424 381.888 452.037 382.797 451.689C383.706 451.341 384.605 451.099 385.494 450.964V453.371C384.953 453.468 384.363 453.613 383.725 453.806C383.106 453.98 382.517 454.183 381.956 454.415C381.395 454.628 380.922 454.85 380.535 455.082V465H377.374ZM394.189 465.29C391.792 465.29 389.936 464.7 388.621 463.521C387.307 462.342 386.649 460.534 386.649 458.098C386.649 455.894 387.21 454.154 388.331 452.878C389.453 451.602 391.154 450.964 393.435 450.964C395.523 450.964 397.089 451.515 398.133 452.617C399.197 453.7 399.728 455.101 399.728 456.822V459.374H389.665C389.82 460.708 390.303 461.626 391.115 462.129C391.927 462.632 393.165 462.883 394.827 462.883C395.523 462.883 396.239 462.815 396.973 462.68C397.708 462.545 398.346 462.371 398.887 462.158V464.478C398.269 464.749 397.553 464.952 396.741 465.087C395.949 465.222 395.098 465.29 394.189 465.29ZM389.665 457.315H396.944V456.358C396.944 455.411 396.683 454.676 396.161 454.154C395.639 453.613 394.76 453.342 393.522 453.342C392.053 453.342 391.038 453.661 390.477 454.299C389.936 454.937 389.665 455.942 389.665 457.315ZM407.246 465.29C406.299 465.29 405.39 465.222 404.52 465.087C403.669 464.952 402.964 464.787 402.403 464.594V461.926C403.06 462.177 403.785 462.371 404.578 462.506C405.371 462.641 406.125 462.709 406.84 462.709C407.923 462.709 408.696 462.612 409.16 462.419C409.624 462.226 409.856 461.849 409.856 461.288C409.856 460.882 409.711 460.563 409.421 460.331C409.15 460.099 408.735 459.886 408.174 459.693C407.633 459.5 406.937 459.268 406.086 458.997C405.274 458.726 404.568 458.436 403.969 458.127C403.37 457.798 402.906 457.383 402.577 456.88C402.248 456.377 402.084 455.72 402.084 454.908C402.084 453.651 402.538 452.685 403.447 452.008C404.356 451.312 405.815 450.964 407.826 450.964C408.619 450.964 409.373 451.022 410.088 451.138C410.803 451.254 411.412 451.399 411.915 451.573V454.212C411.374 453.999 410.774 453.835 410.117 453.719C409.479 453.603 408.88 453.545 408.319 453.545C407.314 453.545 406.55 453.632 406.028 453.806C405.525 453.98 405.274 454.328 405.274 454.85C405.274 455.391 405.535 455.778 406.057 456.01C406.598 456.223 407.459 456.522 408.638 456.909C409.721 457.238 410.581 457.586 411.219 457.953C411.857 458.32 412.311 458.765 412.582 459.287C412.872 459.79 413.017 460.447 413.017 461.259C413.017 462.612 412.524 463.627 411.538 464.304C410.552 464.961 409.121 465.29 407.246 465.29ZM422.651 465.29C420.254 465.29 418.398 464.7 417.083 463.521C415.769 462.342 415.111 460.534 415.111 458.098C415.111 455.894 415.672 454.154 416.793 452.878C417.915 451.602 419.616 450.964 421.897 450.964C423.985 450.964 425.551 451.515 426.595 452.617C427.659 453.7 428.19 455.101 428.19 456.822V459.374H418.127C418.282 460.708 418.765 461.626 419.577 462.129C420.389 462.632 421.627 462.883 423.289 462.883C423.985 462.883 424.701 462.815 425.435 462.68C426.17 462.545 426.808 462.371 427.349 462.158V464.478C426.731 464.749 426.015 464.952 425.203 465.087C424.411 465.222 423.56 465.29 422.651 465.29ZM418.127 457.315H425.406V456.358C425.406 455.411 425.145 454.676 424.623 454.154C424.101 453.613 423.222 453.342 421.984 453.342C420.515 453.342 419.5 453.661 418.939 454.299C418.398 454.937 418.127 455.942 418.127 457.315ZM435.559 465.29C434.689 465.29 433.877 465.135 433.123 464.826C432.389 464.517 431.799 464.053 431.354 463.434C430.91 462.796 430.687 462.013 430.687 461.085C430.687 459.77 431.132 458.717 432.021 457.924C432.93 457.112 434.322 456.706 436.197 456.706H440.605V456.097C440.605 455.44 440.499 454.918 440.286 454.531C440.093 454.144 439.726 453.864 439.184 453.69C438.662 453.516 437.889 453.429 436.864 453.429C435.24 453.429 433.723 453.671 432.311 454.154V451.805C432.93 451.554 433.684 451.351 434.573 451.196C435.463 451.041 436.42 450.964 437.444 450.964C439.455 450.964 440.982 451.37 442.026 452.182C443.09 452.994 443.621 454.318 443.621 456.155V465H440.924L440.721 463.608C440.161 464.149 439.465 464.565 438.633 464.855C437.821 465.145 436.797 465.29 435.559 465.29ZM436.4 463.028C437.348 463.028 438.169 462.873 438.865 462.564C439.581 462.235 440.161 461.8 440.605 461.259V458.852H436.255C435.327 458.852 434.651 459.036 434.225 459.403C433.819 459.751 433.616 460.292 433.616 461.027C433.616 461.742 433.858 462.255 434.341 462.564C434.825 462.873 435.511 463.028 436.4 463.028ZM447.127 465V451.254H450.027L450.201 452.849C450.858 452.424 451.641 452.037 452.55 451.689C453.458 451.341 454.357 451.099 455.247 450.964V453.371C454.705 453.468 454.116 453.613 453.478 453.806C452.859 453.98 452.269 454.183 451.709 454.415C451.148 454.628 450.674 454.85 450.288 455.082V465H447.127ZM463.739 465.29C461.323 465.29 459.496 464.681 458.258 463.463C457.021 462.226 456.402 460.447 456.402 458.127C456.402 455.71 457.079 453.912 458.432 452.733C459.805 451.554 461.632 450.964 463.913 450.964C464.861 450.964 465.653 451.032 466.291 451.167C466.949 451.302 467.577 451.515 468.176 451.805V454.154C467.171 453.651 465.953 453.4 464.522 453.4C462.937 453.4 461.719 453.758 460.868 454.473C460.018 455.169 459.592 456.387 459.592 458.127C459.592 459.77 459.969 460.979 460.723 461.752C461.477 462.506 462.724 462.883 464.464 462.883C465.837 462.883 467.084 462.622 468.205 462.1V464.507C467.567 464.758 466.881 464.952 466.146 465.087C465.431 465.222 464.629 465.29 463.739 465.29ZM470.718 465V445.454H473.879V452.588C474.478 452.105 475.193 451.718 476.025 451.428C476.856 451.119 477.794 450.964 478.838 450.964C480.578 450.964 481.863 451.38 482.695 452.211C483.526 453.042 483.942 454.338 483.942 456.097V465H480.81V456.242C480.81 455.179 480.578 454.434 480.114 454.009C479.669 453.584 478.886 453.371 477.765 453.371C477.069 453.371 476.363 453.526 475.648 453.835C474.932 454.125 474.343 454.512 473.879 454.995V465H470.718ZM500.75 465.29C498.275 465.29 496.458 464.671 495.298 463.434C494.157 462.197 493.587 460.428 493.587 458.127C493.587 455.826 494.167 454.057 495.327 452.82C496.487 451.583 498.295 450.964 500.75 450.964C503.225 450.964 505.042 451.583 506.202 452.82C507.362 454.057 507.942 455.826 507.942 458.127C507.942 460.428 507.362 462.197 506.202 463.434C505.061 464.671 503.244 465.29 500.75 465.29ZM500.75 462.622C502.2 462.622 503.225 462.274 503.824 461.578C504.443 460.863 504.752 459.712 504.752 458.127C504.752 456.542 504.443 455.401 503.824 454.705C503.225 454.009 502.2 453.661 500.75 453.661C499.319 453.661 498.295 454.009 497.676 454.705C497.077 455.401 496.777 456.542 496.777 458.127C496.777 459.712 497.077 460.863 497.676 461.578C498.295 462.274 499.319 462.622 500.75 462.622ZM511.017 465V451.254H513.917L514.062 452.704C514.681 452.221 515.416 451.815 516.266 451.486C517.136 451.138 518.093 450.964 519.137 450.964C520.916 450.964 522.211 451.38 523.023 452.211C523.835 453.042 524.241 454.338 524.241 456.097V465H521.109V456.242C521.109 455.179 520.887 454.434 520.442 454.009C520.017 453.584 519.205 453.371 518.006 453.371C517.291 453.371 516.585 453.516 515.889 453.806C515.213 454.096 514.642 454.473 514.178 454.937V465H511.017ZM535.308 465V453.719H533.307V451.254H535.308V449.833C535.308 448.886 535.53 448.054 535.975 447.339C536.439 446.604 537.077 446.034 537.889 445.628C538.72 445.203 539.687 444.99 540.789 444.99C541.465 444.99 542.103 445.038 542.703 445.135C543.302 445.212 543.795 445.328 544.182 445.483V447.832C543.93 447.716 543.563 447.629 543.08 447.571C542.596 447.513 542.142 447.484 541.717 447.484C540.595 447.484 539.764 447.677 539.223 448.064C538.701 448.451 538.44 449.06 538.44 449.891V451.254H546.183V465H543.022V453.719H538.44V465H535.308ZM549.845 465V451.254H552.745L552.89 452.704C553.508 452.221 554.243 451.815 555.094 451.486C555.964 451.138 556.921 450.964 557.965 450.964C559.743 450.964 561.039 451.38 561.851 452.211C562.663 453.042 563.069 454.338 563.069 456.097V465H559.937V456.242C559.937 455.179 559.714 454.434 559.27 454.009C558.844 453.584 558.032 453.371 556.834 453.371C556.118 453.371 555.413 453.516 554.717 453.806C554.04 454.096 553.47 454.473 553.006 454.937V465H549.845ZM570.477 465.29C569.607 465.29 568.795 465.135 568.041 464.826C567.307 464.517 566.717 464.053 566.272 463.434C565.828 462.796 565.605 462.013 565.605 461.085C565.605 459.77 566.05 458.717 566.939 457.924C567.848 457.112 569.24 456.706 571.115 456.706H575.523V456.097C575.523 455.44 575.417 454.918 575.204 454.531C575.011 454.144 574.644 453.864 574.102 453.69C573.58 453.516 572.807 453.429 571.782 453.429C570.158 453.429 568.641 453.671 567.229 454.154V451.805C567.848 451.554 568.602 451.351 569.491 451.196C570.381 451.041 571.338 450.964 572.362 450.964C574.373 450.964 575.9 451.37 576.944 452.182C578.008 452.994 578.539 454.318 578.539 456.155V465H575.842L575.639 463.608C575.079 464.149 574.383 464.565 573.551 464.855C572.739 465.145 571.715 465.29 570.477 465.29ZM571.318 463.028C572.266 463.028 573.087 462.873 573.783 462.564C574.499 462.235 575.079 461.8 575.523 461.259V458.852H571.173C570.245 458.852 569.569 459.036 569.143 459.403C568.737 459.751 568.534 460.292 568.534 461.027C568.534 461.742 568.776 462.255 569.259 462.564C569.743 462.873 570.429 463.028 571.318 463.028ZM582.045 465V451.254H584.945L585.09 452.704C585.708 452.221 586.443 451.815 587.294 451.486C588.164 451.138 589.121 450.964 590.165 450.964C591.943 450.964 593.239 451.38 594.051 452.211C594.863 453.042 595.269 454.338 595.269 456.097V465H592.137V456.242C592.137 455.179 591.914 454.434 591.47 454.009C591.044 453.584 590.232 453.371 589.034 453.371C588.318 453.371 587.613 453.516 586.917 453.806C586.24 454.096 585.67 454.473 585.206 454.937V465H582.045ZM605.284 465.29C602.868 465.29 601.041 464.681 599.803 463.463C598.566 462.226 597.947 460.447 597.947 458.127C597.947 455.71 598.624 453.912 599.977 452.733C601.35 451.554 603.177 450.964 605.458 450.964C606.406 450.964 607.198 451.032 607.836 451.167C608.494 451.302 609.122 451.515 609.721 451.805V454.154C608.716 453.651 607.498 453.4 606.067 453.4C604.482 453.4 603.264 453.758 602.413 454.473C601.563 455.169 601.137 456.387 601.137 458.127C601.137 459.77 601.514 460.979 602.268 461.752C603.022 462.506 604.269 462.883 606.009 462.883C607.382 462.883 608.629 462.622 609.75 462.1V464.507C609.112 464.758 608.426 464.952 607.691 465.087C606.976 465.222 606.174 465.29 605.284 465.29ZM613.423 448.383V445.773H616.874V448.383H613.423ZM613.684 465V453.661H611.596L611.886 451.254H616.845V465H613.684ZM624.824 465.29C623.954 465.29 623.142 465.135 622.388 464.826C621.653 464.517 621.064 464.053 620.619 463.434C620.174 462.796 619.952 462.013 619.952 461.085C619.952 459.77 620.397 458.717 621.286 457.924C622.195 457.112 623.587 456.706 625.462 456.706H629.87V456.097C629.87 455.44 629.764 454.918 629.551 454.531C629.358 454.144 628.99 453.864 628.449 453.69C627.927 453.516 627.154 453.429 626.129 453.429C624.505 453.429 622.987 453.671 621.576 454.154V451.805C622.195 451.554 622.949 451.351 623.838 451.196C624.727 451.041 625.684 450.964 626.709 450.964C628.72 450.964 630.247 451.37 631.291 452.182C632.354 452.994 632.886 454.318 632.886 456.155V465H630.189L629.986 463.608C629.425 464.149 628.729 464.565 627.898 464.855C627.086 465.145 626.061 465.29 624.824 465.29ZM625.665 463.028C626.612 463.028 627.434 462.873 628.13 462.564C628.845 462.235 629.425 461.8 629.87 461.259V458.852H625.52C624.592 458.852 623.915 459.036 623.49 459.403C623.084 459.751 622.881 460.292 622.881 461.027C622.881 461.742 623.123 462.255 623.606 462.564C624.089 462.873 624.776 463.028 625.665 463.028ZM639.813 465.29C638.692 465.29 637.841 465.019 637.261 464.478C636.681 463.917 636.391 462.999 636.391 461.723V445.454H639.552V461.433C639.552 461.974 639.649 462.342 639.842 462.535C640.036 462.728 640.326 462.825 640.712 462.825C641.176 462.825 641.621 462.767 642.046 462.651V464.942C641.679 465.077 641.321 465.164 640.973 465.203C640.645 465.261 640.258 465.29 639.813 465.29ZM658.163 465.29C655.766 465.29 653.91 464.7 652.595 463.521C651.28 462.342 650.623 460.534 650.623 458.098C650.623 455.894 651.184 454.154 652.305 452.878C653.426 451.602 655.128 450.964 657.409 450.964C659.497 450.964 661.063 451.515 662.107 452.617C663.17 453.7 663.702 455.101 663.702 456.822V459.374H653.639C653.794 460.708 654.277 461.626 655.089 462.129C655.901 462.632 657.138 462.883 658.801 462.883C659.497 462.883 660.212 462.815 660.947 462.68C661.682 462.545 662.32 462.371 662.861 462.158V464.478C662.242 464.749 661.527 464.952 660.715 465.087C659.922 465.222 659.072 465.29 658.163 465.29ZM653.639 457.315H660.918V456.358C660.918 455.411 660.657 454.676 660.135 454.154C659.613 453.613 658.733 453.342 657.496 453.342C656.027 453.342 655.012 453.661 654.451 454.299C653.91 454.937 653.639 455.942 653.639 457.315ZM666.779 465V451.254H669.679L669.824 452.704C670.443 452.221 671.177 451.815 672.028 451.486C672.898 451.138 673.855 450.964 674.899 450.964C676.678 450.964 677.973 451.38 678.785 452.211C679.597 453.042 680.003 454.338 680.003 456.097V465H676.871V456.242C676.871 455.179 676.649 454.434 676.204 454.009C675.779 453.584 674.967 453.371 673.768 453.371C673.053 453.371 672.347 453.516 671.651 453.806C670.974 454.096 670.404 454.473 669.94 454.937V465H666.779ZM689.113 470.104C688.088 470.104 687.063 470.036 686.039 469.901C685.014 469.785 684.144 469.601 683.429 469.35V466.914C684.202 467.165 685.091 467.359 686.097 467.494C687.102 467.629 688.059 467.697 688.968 467.697C690.36 467.697 691.375 467.62 692.013 467.465C692.651 467.31 692.97 466.962 692.97 466.421C692.97 466.015 692.815 465.725 692.506 465.551C692.196 465.396 691.607 465.319 690.737 465.319H687.025C684.531 465.319 683.284 464.439 683.284 462.68C683.284 462.119 683.448 461.597 683.777 461.114C684.105 460.631 684.627 460.263 685.343 460.012C684.55 459.625 683.96 459.094 683.574 458.417C683.206 457.74 683.023 456.928 683.023 455.981C683.023 454.222 683.545 452.946 684.589 452.153C685.652 451.36 687.237 450.964 689.345 450.964C689.789 450.964 690.253 451.003 690.737 451.08C691.22 451.138 691.597 451.196 691.868 451.254H696.914L696.827 453.313H694.507C694.874 453.622 695.145 454.009 695.319 454.473C695.493 454.937 695.58 455.44 695.58 455.981C695.58 457.45 695.135 458.61 694.246 459.461C693.356 460.292 692.013 460.708 690.215 460.708C689.905 460.708 689.615 460.698 689.345 460.679C689.093 460.64 688.813 460.602 688.504 460.563C687.924 460.621 687.402 460.776 686.938 461.027C686.474 461.278 686.242 461.617 686.242 462.042C686.242 462.332 686.358 462.545 686.59 462.68C686.822 462.796 687.208 462.854 687.75 462.854H691.607C692.979 462.854 694.033 463.154 694.768 463.753C695.522 464.333 695.899 465.184 695.899 466.305C695.899 467.658 695.309 468.625 694.13 469.205C692.97 469.804 691.297 470.104 689.113 470.104ZM689.345 458.707C690.601 458.707 691.471 458.494 691.955 458.069C692.457 457.644 692.709 456.919 692.709 455.894C692.709 454.869 692.457 454.125 691.955 453.661C691.471 453.197 690.601 452.965 689.345 452.965C688.165 452.965 687.305 453.187 686.764 453.632C686.222 454.077 685.952 454.831 685.952 455.894C685.952 456.88 686.203 457.595 686.706 458.04C687.228 458.485 688.107 458.707 689.345 458.707ZM700.026 448.383V445.773H703.477V448.383H700.026ZM700.287 465V453.661H698.199L698.489 451.254H703.448V465H700.287ZM707.136 465V451.254H710.036L710.181 452.704C710.799 452.221 711.534 451.815 712.385 451.486C713.255 451.138 714.212 450.964 715.256 450.964C717.034 450.964 718.33 451.38 719.142 452.211C719.954 453.042 720.36 454.338 720.36 456.097V465H717.228V456.242C717.228 455.179 717.005 454.434 716.561 454.009C716.135 453.584 715.323 453.371 714.125 453.371C713.409 453.371 712.704 453.516 712.008 453.806C711.331 454.096 710.761 454.473 710.297 454.937V465H707.136ZM730.578 465.29C728.181 465.29 726.325 464.7 725.01 463.521C723.695 462.342 723.038 460.534 723.038 458.098C723.038 455.894 723.599 454.154 724.72 452.878C725.841 451.602 727.543 450.964 729.824 450.964C731.912 450.964 733.478 451.515 734.522 452.617C735.585 453.7 736.117 455.101 736.117 456.822V459.374H726.054C726.209 460.708 726.692 461.626 727.504 462.129C728.316 462.632 729.553 462.883 731.216 462.883C731.912 462.883 732.627 462.815 733.362 462.68C734.097 462.545 734.735 462.371 735.276 462.158V464.478C734.657 464.749 733.942 464.952 733.13 465.087C732.337 465.222 731.487 465.29 730.578 465.29ZM726.054 457.315H733.333V456.358C733.333 455.411 733.072 454.676 732.55 454.154C732.028 453.613 731.148 453.342 729.911 453.342C728.442 453.342 727.427 453.661 726.866 454.299C726.325 454.937 726.054 455.942 726.054 457.315ZM746.154 465.29C743.757 465.29 741.901 464.7 740.586 463.521C739.272 462.342 738.614 460.534 738.614 458.098C738.614 455.894 739.175 454.154 740.296 452.878C741.418 451.602 743.119 450.964 745.4 450.964C747.488 450.964 749.054 451.515 750.098 452.617C751.162 453.7 751.693 455.101 751.693 456.822V459.374H741.63C741.785 460.708 742.268 461.626 743.08 462.129C743.892 462.632 745.13 462.883 746.792 462.883C747.488 462.883 748.204 462.815 748.938 462.68C749.673 462.545 750.311 462.371 750.852 462.158V464.478C750.234 464.749 749.518 464.952 748.706 465.087C747.914 465.222 747.063 465.29 746.154 465.29ZM741.63 457.315H748.909V456.358C748.909 455.411 748.648 454.676 748.126 454.154C747.604 453.613 746.725 453.342 745.487 453.342C744.018 453.342 743.003 453.661 742.442 454.299C741.901 454.937 741.63 455.942 741.63 457.315ZM754.77 465V451.254H757.67L757.844 452.849C758.502 452.424 759.285 452.037 760.193 451.689C761.102 451.341 762.001 451.099 762.89 450.964V453.371C762.349 453.468 761.759 453.613 761.121 453.806C760.503 453.98 759.913 454.183 759.352 454.415C758.792 454.628 758.318 454.85 757.931 455.082V465H754.77ZM766.352 448.383V445.773H769.803V448.383H766.352ZM766.613 465V453.661H764.525L764.815 451.254H769.774V465H766.613ZM773.462 465V451.254H776.362L776.507 452.704C777.125 452.221 777.86 451.815 778.711 451.486C779.581 451.138 780.538 450.964 781.582 450.964C783.36 450.964 784.656 451.38 785.468 452.211C786.28 453.042 786.686 454.338 786.686 456.097V465H783.554V456.242C783.554 455.179 783.331 454.434 782.887 454.009C782.461 453.584 781.649 453.371 780.451 453.371C779.735 453.371 779.03 453.516 778.334 453.806C777.657 454.096 777.087 454.473 776.623 454.937V465H773.462ZM795.795 470.104C794.771 470.104 793.746 470.036 792.721 469.901C791.697 469.785 790.827 469.601 790.111 469.35V466.914C790.885 467.165 791.774 467.359 792.779 467.494C793.785 467.629 794.742 467.697 795.65 467.697C797.042 467.697 798.057 467.62 798.695 467.465C799.333 467.31 799.652 466.962 799.652 466.421C799.652 466.015 799.498 465.725 799.188 465.551C798.879 465.396 798.289 465.319 797.419 465.319H793.707C791.213 465.319 789.966 464.439 789.966 462.68C789.966 462.119 790.131 461.597 790.459 461.114C790.788 460.631 791.31 460.263 792.025 460.012C791.233 459.625 790.643 459.094 790.256 458.417C789.889 457.74 789.705 456.928 789.705 455.981C789.705 454.222 790.227 452.946 791.271 452.153C792.335 451.36 793.92 450.964 796.027 450.964C796.472 450.964 796.936 451.003 797.419 451.08C797.903 451.138 798.28 451.196 798.55 451.254H803.596L803.509 453.313H801.189C801.557 453.622 801.827 454.009 802.001 454.473C802.175 454.937 802.262 455.44 802.262 455.981C802.262 457.45 801.818 458.61 800.928 459.461C800.039 460.292 798.695 460.708 796.897 460.708C796.588 460.708 796.298 460.698 796.027 460.679C795.776 460.64 795.496 460.602 795.186 460.563C794.606 460.621 794.084 460.776 793.62 461.027C793.156 461.278 792.924 461.617 792.924 462.042C792.924 462.332 793.04 462.545 793.272 462.68C793.504 462.796 793.891 462.854 794.432 462.854H798.289C799.662 462.854 800.716 463.154 801.45 463.753C802.204 464.333 802.581 465.184 802.581 466.305C802.581 467.658 801.992 468.625 800.812 469.205C799.652 469.804 797.98 470.104 795.795 470.104ZM796.027 458.707C797.284 458.707 798.154 458.494 798.637 458.069C799.14 457.644 799.391 456.919 799.391 455.894C799.391 454.869 799.14 454.125 798.637 453.661C798.154 453.197 797.284 452.965 796.027 452.965C794.848 452.965 793.988 453.187 793.446 453.632C792.905 454.077 792.634 454.831 792.634 455.894C792.634 456.88 792.886 457.595 793.388 458.04C793.91 458.485 794.79 458.707 796.027 458.707ZM818.218 465.29C816.748 465.29 815.646 464.903 814.912 464.13C814.196 463.337 813.839 462.264 813.839 460.911V453.719H811.809V451.254H813.839V448.093L816.971 447.136V451.254H820.625L820.422 453.719H816.971V460.737C816.971 461.53 817.154 462.09 817.522 462.419C817.889 462.728 818.488 462.883 819.32 462.883C819.842 462.883 820.393 462.786 820.973 462.593V464.826C820.219 465.135 819.3 465.29 818.218 465.29ZM823.39 465V445.454H826.551V452.588C827.151 452.105 827.866 451.718 828.697 451.428C829.529 451.119 830.466 450.964 831.51 450.964C833.25 450.964 834.536 451.38 835.367 452.211C836.199 453.042 836.614 454.338 836.614 456.097V465H833.482V456.242C833.482 455.179 833.25 454.434 832.786 454.009C832.342 453.584 831.559 453.371 830.437 453.371C829.741 453.371 829.036 453.526 828.32 453.835C827.605 454.125 827.015 454.512 826.551 454.995V465H823.39ZM844.023 465.29C843.153 465.29 842.341 465.135 841.587 464.826C840.853 464.517 840.263 464.053 839.818 463.434C839.374 462.796 839.151 462.013 839.151 461.085C839.151 459.77 839.596 458.717 840.485 457.924C841.394 457.112 842.786 456.706 844.661 456.706H849.069V456.097C849.069 455.44 848.963 454.918 848.75 454.531C848.557 454.144 848.19 453.864 847.648 453.69C847.126 453.516 846.353 453.429 845.328 453.429C843.704 453.429 842.187 453.671 840.775 454.154V451.805C841.394 451.554 842.148 451.351 843.037 451.196C843.927 451.041 844.884 450.964 845.908 450.964C847.919 450.964 849.446 451.37 850.49 452.182C851.554 452.994 852.085 454.318 852.085 456.155V465H849.388L849.185 463.608C848.625 464.149 847.929 464.565 847.097 464.855C846.285 465.145 845.261 465.29 844.023 465.29ZM844.864 463.028C845.812 463.028 846.633 462.873 847.329 462.564C848.045 462.235 848.625 461.8 849.069 461.259V458.852H844.719C843.791 458.852 843.115 459.036 842.689 459.403C842.283 459.751 842.08 460.292 842.08 461.027C842.08 461.742 842.322 462.255 842.805 462.564C843.289 462.873 843.975 463.028 844.864 463.028ZM860.84 465.29C859.37 465.29 858.268 464.903 857.534 464.13C856.818 463.337 856.461 462.264 856.461 460.911V453.719H854.431V451.254H856.461V448.093L859.593 447.136V451.254H863.247L863.044 453.719H859.593V460.737C859.593 461.53 859.776 462.09 860.144 462.419C860.511 462.728 861.11 462.883 861.942 462.883C862.464 462.883 863.015 462.786 863.595 462.593V464.826C862.841 465.135 861.922 465.29 860.84 465.29ZM875.741 465L872.116 451.254H875.277L877.655 461.259L880.352 452.936V451.254H882.759L885.746 461.259L888.124 451.254H891.256L887.66 465H884.673L881.744 456.01L878.757 465H875.741ZM899.99 465.29C897.593 465.29 895.737 464.7 894.422 463.521C893.107 462.342 892.45 460.534 892.45 458.098C892.45 455.894 893.011 454.154 894.132 452.878C895.253 451.602 896.955 450.964 899.236 450.964C901.324 450.964 902.89 451.515 903.934 452.617C904.997 453.7 905.529 455.101 905.529 456.822V459.374H895.466C895.621 460.708 896.104 461.626 896.916 462.129C897.728 462.632 898.965 462.883 900.628 462.883C901.324 462.883 902.039 462.815 902.774 462.68C903.509 462.545 904.147 462.371 904.688 462.158V464.478C904.069 464.749 903.354 464.952 902.542 465.087C901.749 465.222 900.899 465.29 899.99 465.29ZM895.466 457.315H902.745V456.358C902.745 455.411 902.484 454.676 901.962 454.154C901.44 453.613 900.56 453.342 899.323 453.342C897.854 453.342 896.839 453.661 896.278 454.299C895.737 454.937 895.466 455.942 895.466 457.315ZM919.872 465.29C918.925 465.29 918.016 465.222 917.146 465.087C916.295 464.952 915.59 464.787 915.029 464.594V461.926C915.686 462.177 916.411 462.371 917.204 462.506C917.997 462.641 918.751 462.709 919.466 462.709C920.549 462.709 921.322 462.612 921.786 462.419C922.25 462.226 922.482 461.849 922.482 461.288C922.482 460.882 922.337 460.563 922.047 460.331C921.776 460.099 921.361 459.886 920.8 459.693C920.259 459.5 919.563 459.268 918.712 458.997C917.9 458.726 917.194 458.436 916.595 458.127C915.996 457.798 915.532 457.383 915.203 456.88C914.874 456.377 914.71 455.72 914.71 454.908C914.71 453.651 915.164 452.685 916.073 452.008C916.982 451.312 918.441 450.964 920.452 450.964C921.245 450.964 921.999 451.022 922.714 451.138C923.429 451.254 924.038 451.399 924.541 451.573V454.212C924 453.999 923.4 453.835 922.743 453.719C922.105 453.603 921.506 453.545 920.945 453.545C919.94 453.545 919.176 453.632 918.654 453.806C918.151 453.98 917.9 454.328 917.9 454.85C917.9 455.391 918.161 455.778 918.683 456.01C919.224 456.223 920.085 456.522 921.264 456.909C922.347 457.238 923.207 457.586 923.845 457.953C924.483 458.32 924.937 458.765 925.208 459.287C925.498 459.79 925.643 460.447 925.643 461.259C925.643 462.612 925.15 463.627 924.164 464.304C923.178 464.961 921.747 465.29 919.872 465.29ZM928.742 465V445.454H931.903V452.588C932.502 452.105 933.218 451.718 934.049 451.428C934.88 451.119 935.818 450.964 936.862 450.964C938.602 450.964 939.888 451.38 940.719 452.211C941.55 453.042 941.966 454.338 941.966 456.097V465H938.834V456.242C938.834 455.179 938.602 454.434 938.138 454.009C937.693 453.584 936.91 453.371 935.789 453.371C935.093 453.371 934.387 453.526 933.672 453.835C932.957 454.125 932.367 454.512 931.903 454.995V465H928.742ZM949.375 465.29C948.505 465.29 947.693 465.135 946.939 464.826C946.204 464.517 945.615 464.053 945.17 463.434C944.725 462.796 944.503 462.013 944.503 461.085C944.503 459.77 944.948 458.717 945.837 457.924C946.746 457.112 948.138 456.706 950.013 456.706H954.421V456.097C954.421 455.44 954.315 454.918 954.102 454.531C953.909 454.144 953.541 453.864 953 453.69C952.478 453.516 951.705 453.429 950.68 453.429C949.056 453.429 947.538 453.671 946.127 454.154V451.805C946.746 451.554 947.5 451.351 948.389 451.196C949.278 451.041 950.235 450.964 951.26 450.964C953.271 450.964 954.798 451.37 955.842 452.182C956.905 452.994 957.437 454.318 957.437 456.155V465H954.74L954.537 463.608C953.976 464.149 953.28 464.565 952.449 464.855C951.637 465.145 950.612 465.29 949.375 465.29ZM950.216 463.028C951.163 463.028 951.985 462.873 952.681 462.564C953.396 462.235 953.976 461.8 954.421 461.259V458.852H950.071C949.143 458.852 948.466 459.036 948.041 459.403C947.635 459.751 947.432 460.292 947.432 461.027C947.432 461.742 947.674 462.255 948.157 462.564C948.64 462.873 949.327 463.028 950.216 463.028ZM960.942 465V451.254H963.842L964.016 452.849C964.674 452.424 965.457 452.037 966.365 451.689C967.274 451.341 968.173 451.099 969.062 450.964V453.371C968.521 453.468 967.931 453.613 967.293 453.806C966.675 453.98 966.085 454.183 965.524 454.415C964.964 454.628 964.49 454.85 964.103 455.082V465H960.942ZM977.758 465.29C975.36 465.29 973.504 464.7 972.19 463.521C970.875 462.342 970.218 460.534 970.218 458.098C970.218 455.894 970.778 454.154 971.9 452.878C973.021 451.602 974.722 450.964 977.004 450.964C979.092 450.964 980.658 451.515 981.702 452.617C982.765 453.7 983.297 455.101 983.297 456.822V459.374H973.234C973.388 460.708 973.872 461.626 974.684 462.129C975.496 462.632 976.733 462.883 978.396 462.883C979.092 462.883 979.807 462.815 980.542 462.68C981.276 462.545 981.914 462.371 982.456 462.158V464.478C981.837 464.749 981.122 464.952 980.31 465.087C979.517 465.222 978.666 465.29 977.758 465.29ZM973.234 457.315H980.513V456.358C980.513 455.411 980.252 454.676 979.73 454.154C979.208 453.613 978.328 453.342 977.091 453.342C975.621 453.342 974.606 453.661 974.046 454.299C973.504 454.937 973.234 455.942 973.234 457.315ZM985.794 465V462.535H988.462V465H985.794Z" fill="black"/>
<path d="M397 149.938C388.483 149.938 380.157 152.463 373.076 157.195C365.994 161.927 360.475 168.652 357.215 176.521C353.956 184.389 353.103 193.048 354.765 201.401C356.427 209.754 360.528 217.427 366.55 223.45C372.573 229.472 380.246 233.573 388.599 235.235C396.952 236.897 405.611 236.044 413.479 232.785C421.348 229.525 428.073 224.006 432.805 216.924C437.537 209.843 440.062 201.517 440.062 193C440.05 181.583 435.51 170.637 427.436 162.564C419.363 154.49 408.417 149.95 397 149.938ZM397 229.437C389.793 229.437 382.749 227.3 376.756 223.297C370.764 219.293 366.094 213.602 363.336 206.944C360.578 200.286 359.857 192.96 361.263 185.891C362.669 178.823 366.139 172.331 371.235 167.235C376.331 162.139 382.823 158.669 389.891 157.263C396.96 155.857 404.286 156.578 410.944 159.336C417.602 162.094 423.293 166.764 427.297 172.756C431.3 178.749 433.437 185.793 433.437 193C433.427 202.66 429.584 211.922 422.753 218.753C415.922 225.584 406.66 229.427 397 229.437ZM413.562 201.281C413.562 204.356 412.341 207.305 410.167 209.479C407.993 211.654 405.044 212.875 401.969 212.875H400.312V216.187C400.312 217.066 399.964 217.909 399.342 218.53C398.721 219.151 397.879 219.5 397 219.5C396.121 219.5 395.279 219.151 394.658 218.53C394.036 217.909 393.687 217.066 393.687 216.187V212.875H387.062C386.184 212.875 385.341 212.526 384.72 211.905C384.099 211.284 383.75 210.441 383.75 209.562C383.75 208.684 384.099 207.841 384.72 207.22C385.341 206.599 386.184 206.25 387.062 206.25H401.969C403.287 206.25 404.55 205.727 405.482 204.795C406.414 203.863 406.937 202.599 406.937 201.281C406.937 199.963 406.414 198.7 405.482 197.768C404.55 196.836 403.287 196.312 401.969 196.312H392.031C388.956 196.312 386.007 195.091 383.833 192.917C381.659 190.743 380.437 187.794 380.437 184.719C380.437 181.644 381.659 178.695 383.833 176.521C386.007 174.346 388.956 173.125 392.031 173.125H393.687V169.812C393.687 168.934 394.036 168.091 394.658 167.47C395.279 166.849 396.121 166.5 397 166.5C397.879 166.5 398.721 166.849 399.342 167.47C399.964 168.091 400.312 168.934 400.312 169.812V173.125H406.937C407.816 173.125 408.659 173.474 409.28 174.095C409.901 174.716 410.25 175.559 410.25 176.437C410.25 177.316 409.901 178.159 409.28 178.78C408.659 179.401 407.816 179.75 406.937 179.75H392.031C390.713 179.75 389.45 180.273 388.518 181.205C387.586 182.137 387.062 183.401 387.062 184.719C387.062 186.037 387.586 187.3 388.518 188.232C389.45 189.164 390.713 189.687 392.031 189.687H401.969C405.044 189.687 407.993 190.909 410.167 193.083C412.341 195.257 413.562 198.206 413.562 201.281Z" fill="black"/>
<path d="M397 149.938C388.483 149.938 380.157 152.463 373.076 157.195C365.994 161.927 360.475 168.652 357.215 176.521C353.956 184.389 353.103 193.048 354.765 201.401C356.427 209.754 360.528 217.427 366.55 223.45C372.573 229.472 380.246 233.573 388.599 235.235C396.952 236.897 405.611 236.044 413.479 232.785C421.348 229.525 428.073 224.006 432.805 216.924C437.537 209.843 440.062 201.517 440.062 193C440.05 181.583 435.51 170.637 427.436 162.564C419.363 154.49 408.417 149.95 397 149.938ZM397 229.437C389.793 229.437 382.749 227.3 376.756 223.297C370.764 219.293 366.094 213.602 363.336 206.944C360.578 200.286 359.857 192.96 361.263 185.891C362.669 178.823 366.139 172.331 371.235 167.235C376.331 162.139 382.823 158.669 389.891 157.263C396.96 155.857 404.286 156.578 410.944 159.336C417.602 162.094 423.293 166.764 427.297 172.756C431.3 178.749 433.437 185.793 433.437 193C433.427 202.66 429.584 211.922 422.753 218.753C415.922 225.584 406.66 229.427 397 229.437ZM413.562 201.281C413.562 204.356 412.341 207.305 410.167 209.479C407.993 211.654 405.044 212.875 401.969 212.875H400.312V216.187C400.312 217.066 399.964 217.909 399.342 218.53C398.721 219.151 397.879 219.5 397 219.5C396.121 219.5 395.279 219.151 394.658 218.53C394.036 217.909 393.687 217.066 393.687 216.187V212.875H387.062C386.184 212.875 385.341 212.526 384.72 211.905C384.099 211.284 383.75 210.441 383.75 209.562C383.75 208.684 384.099 207.841 384.72 207.22C385.341 206.599 386.184 206.25 387.062 206.25H401.969C403.287 206.25 404.55 205.727 405.482 204.795C406.414 203.863 406.937 202.599 406.937 201.281C406.937 199.963 406.414 198.7 405.482 197.768C404.55 196.836 403.287 196.312 401.969 196.312H392.031C388.956 196.312 386.007 195.091 383.833 192.917C381.659 190.743 380.437 187.794 380.437 184.719C380.437 181.644 381.659 178.695 383.833 176.521C386.007 174.346 388.956 173.125 392.031 173.125H393.687V169.812C393.687 168.934 394.036 168.091 394.658 167.47C395.279 166.849 396.121 166.5 397 166.5C397.879 166.5 398.721 166.849 399.342 167.47C399.964 168.091 400.312 168.934 400.312 169.812V173.125H406.937C407.816 173.125 408.659 173.474 409.28 174.095C409.901 174.716 410.25 175.559 410.25 176.437C410.25 177.316 409.901 178.159 409.28 178.78C408.659 179.401 407.816 179.75 406.937 179.75H392.031C390.713 179.75 389.45 180.273 388.518 181.205C387.586 182.137 387.062 183.401 387.062 184.719C387.062 186.037 387.586 187.3 388.518 188.232C389.45 189.164 390.713 189.687 392.031 189.687H401.969C405.044 189.687 407.993 190.909 410.167 193.083C412.341 195.257 413.562 198.206 413.562 201.281Z" stroke="black"/>
<path d="M361.827 512V492.454H364.988V499.588C365.587 499.105 366.303 498.718 367.134 498.428C367.965 498.119 368.903 497.964 369.947 497.964C371.687 497.964 372.973 498.38 373.804 499.211C374.635 500.042 375.051 501.338 375.051 503.097V512H371.919V503.242C371.919 502.179 371.687 501.434 371.223 501.009C370.778 500.584 369.995 500.371 368.874 500.371C368.178 500.371 367.472 500.526 366.757 500.835C366.042 501.125 365.452 501.512 364.988 501.995V512H361.827ZM383.842 512.29C382.372 512.29 381.27 511.903 380.536 511.13C379.82 510.337 379.463 509.264 379.463 507.911V500.719H377.433V498.254H379.463V495.093L382.595 494.136V498.254H386.249L386.046 500.719H382.595V507.737C382.595 508.53 382.778 509.09 383.146 509.419C383.513 509.728 384.112 509.883 384.944 509.883C385.466 509.883 386.017 509.786 386.597 509.593V511.826C385.843 512.135 384.924 512.29 383.842 512.29ZM394.264 512.29C392.794 512.29 391.692 511.903 390.958 511.13C390.242 510.337 389.885 509.264 389.885 507.911V500.719H387.855V498.254H389.885V495.093L393.017 494.136V498.254H396.671L396.468 500.719H393.017V507.737C393.017 508.53 393.2 509.09 393.568 509.419C393.935 509.728 394.534 509.883 395.366 509.883C395.888 509.883 396.439 509.786 397.019 509.593V511.826C396.265 512.135 395.346 512.29 394.264 512.29ZM399.436 518.264V498.254H402.162L402.336 499.617C402.955 499.056 403.632 498.641 404.366 498.37C405.101 498.099 405.971 497.964 406.976 497.964C408.948 497.964 410.485 498.505 411.587 499.588C412.689 500.651 413.24 502.42 413.24 504.895C413.24 507.37 412.67 509.226 411.529 510.463C410.389 511.681 408.832 512.29 406.86 512.29C405.198 512.29 403.777 511.903 402.597 511.13V518.264H399.436ZM406.048 509.912C408.716 509.912 410.05 508.23 410.05 504.866C410.05 503.242 409.751 502.092 409.151 501.415C408.552 500.719 407.547 500.371 406.135 500.371C404.724 500.371 403.545 500.854 402.597 501.821V508.694C403.042 509.061 403.535 509.361 404.076 509.593C404.637 509.806 405.294 509.912 406.048 509.912ZM420.756 512.29C419.808 512.29 418.9 512.222 418.03 512.087C417.179 511.952 416.473 511.787 415.913 511.594V508.926C416.57 509.177 417.295 509.371 418.088 509.506C418.88 509.641 419.634 509.709 420.35 509.709C421.432 509.709 422.206 509.612 422.67 509.419C423.134 509.226 423.366 508.849 423.366 508.288C423.366 507.882 423.221 507.563 422.931 507.331C422.66 507.099 422.244 506.886 421.684 506.693C421.142 506.5 420.446 506.268 419.596 505.997C418.784 505.726 418.078 505.436 417.479 505.127C416.879 504.798 416.415 504.383 416.087 503.88C415.758 503.377 415.594 502.72 415.594 501.908C415.594 500.651 416.048 499.685 416.957 499.008C417.865 498.312 419.325 497.964 421.336 497.964C422.128 497.964 422.882 498.022 423.598 498.138C424.313 498.254 424.922 498.399 425.425 498.573V501.212C424.883 500.999 424.284 500.835 423.627 500.719C422.989 500.603 422.389 500.545 421.829 500.545C420.823 500.545 420.06 500.632 419.538 500.806C419.035 500.98 418.784 501.328 418.784 501.85C418.784 502.391 419.045 502.778 419.567 503.01C420.108 503.223 420.968 503.522 422.148 503.909C423.23 504.238 424.091 504.586 424.729 504.953C425.367 505.32 425.821 505.765 426.092 506.287C426.382 506.79 426.527 507.447 426.527 508.259C426.527 509.612 426.034 510.627 425.048 511.304C424.062 511.961 422.631 512.29 420.756 512.29ZM429.046 502.546V500.052H431.714V502.546H429.046ZM429.046 511.275V508.781H431.714V511.275H429.046ZM434.228 512L441.014 492.802H444.233L437.447 512H434.228ZM446.718 512L453.504 492.802H456.723L449.937 512H446.718ZM465.355 517.104C464.33 517.104 463.306 517.036 462.281 516.901C461.256 516.785 460.386 516.601 459.671 516.35V513.914C460.444 514.165 461.334 514.359 462.339 514.494C463.344 514.629 464.301 514.697 465.21 514.697C466.602 514.697 467.617 514.62 468.255 514.465C468.893 514.31 469.212 513.962 469.212 513.421C469.212 513.015 469.057 512.725 468.748 512.551C468.439 512.396 467.849 512.319 466.979 512.319H463.267C460.773 512.319 459.526 511.439 459.526 509.68C459.526 509.119 459.69 508.597 460.019 508.114C460.348 507.631 460.87 507.263 461.585 507.012C460.792 506.625 460.203 506.094 459.816 505.417C459.449 504.74 459.265 503.928 459.265 502.981C459.265 501.222 459.787 499.946 460.831 499.153C461.894 498.36 463.48 497.964 465.587 497.964C466.032 497.964 466.496 498.003 466.979 498.08C467.462 498.138 467.839 498.196 468.11 498.254H473.156L473.069 500.313H470.749C471.116 500.622 471.387 501.009 471.561 501.473C471.735 501.937 471.822 502.44 471.822 502.981C471.822 504.45 471.377 505.61 470.488 506.461C469.599 507.292 468.255 507.708 466.457 507.708C466.148 507.708 465.858 507.698 465.587 507.679C465.336 507.64 465.055 507.602 464.746 507.563C464.166 507.621 463.644 507.776 463.18 508.027C462.716 508.278 462.484 508.617 462.484 509.042C462.484 509.332 462.6 509.545 462.832 509.68C463.064 509.796 463.451 509.854 463.992 509.854H467.849C469.222 509.854 470.275 510.154 471.01 510.753C471.764 511.333 472.141 512.184 472.141 513.305C472.141 514.658 471.551 515.625 470.372 516.205C469.212 516.804 467.54 517.104 465.355 517.104ZM465.587 505.707C466.844 505.707 467.714 505.494 468.197 505.069C468.7 504.644 468.951 503.919 468.951 502.894C468.951 501.869 468.7 501.125 468.197 500.661C467.714 500.197 466.844 499.965 465.587 499.965C464.408 499.965 463.547 500.187 463.006 500.632C462.465 501.077 462.194 501.831 462.194 502.894C462.194 503.88 462.445 504.595 462.948 505.04C463.47 505.485 464.35 505.707 465.587 505.707ZM476.268 495.383V492.773H479.719V495.383H476.268ZM476.529 512V500.661H474.441L474.731 498.254H479.69V512H476.529ZM488.627 512.29C487.157 512.29 486.055 511.903 485.321 511.13C484.605 510.337 484.248 509.264 484.248 507.911V500.719H482.218V498.254H484.248V495.093L487.38 494.136V498.254H491.034L490.831 500.719H487.38V507.737C487.38 508.53 487.563 509.09 487.931 509.419C488.298 509.728 488.897 509.883 489.729 509.883C490.251 509.883 490.802 509.786 491.382 509.593V511.826C490.628 512.135 489.709 512.29 488.627 512.29ZM493.8 512V492.454H496.961V499.588C497.56 499.105 498.275 498.718 499.107 498.428C499.938 498.119 500.876 497.964 501.92 497.964C503.66 497.964 504.945 498.38 505.777 499.211C506.608 500.042 507.024 501.338 507.024 503.097V512H503.892V503.242C503.892 502.179 503.66 501.434 503.196 501.009C502.751 500.584 501.968 500.371 500.847 500.371C500.151 500.371 499.445 500.526 498.73 500.835C498.014 501.125 497.425 501.512 496.961 501.995V512H493.8ZM515.524 512.29C513.881 512.29 512.615 511.836 511.725 510.927C510.855 510.018 510.42 508.684 510.42 506.925V498.254H513.581V506.925C513.581 507.95 513.833 508.704 514.335 509.187C514.838 509.67 515.611 509.912 516.655 509.912C517.429 509.912 518.144 509.767 518.801 509.477C519.459 509.187 520.029 508.8 520.512 508.317V498.254H523.644V512H520.773L520.628 510.579C520.01 511.062 519.275 511.468 518.424 511.797C517.574 512.126 516.607 512.29 515.524 512.29ZM534.871 512.29C533.866 512.29 532.996 512.155 532.261 511.884C531.526 511.613 530.85 511.198 530.231 510.637L530.057 512H527.331V492.454H530.492V499.153C531.691 498.36 533.131 497.964 534.813 497.964C536.766 497.964 538.303 498.525 539.424 499.646C540.565 500.748 541.135 502.536 541.135 505.011C541.135 507.505 540.574 509.342 539.453 510.521C538.332 511.7 536.804 512.29 534.871 512.29ZM534.03 509.912C535.461 509.912 536.466 509.506 537.046 508.694C537.645 507.882 537.945 506.654 537.945 505.011C537.945 503.31 537.626 502.111 536.988 501.415C536.35 500.719 535.345 500.371 533.972 500.371C532.541 500.371 531.381 500.767 530.492 501.56V508.462C531.401 509.429 532.58 509.912 534.03 509.912ZM543.63 512V509.535H546.298V512H543.63ZM556.149 512.29C553.733 512.29 551.906 511.681 550.668 510.463C549.431 509.226 548.812 507.447 548.812 505.127C548.812 502.71 549.489 500.912 550.842 499.733C552.215 498.554 554.042 497.964 556.323 497.964C557.271 497.964 558.063 498.032 558.701 498.167C559.359 498.302 559.987 498.515 560.586 498.805V501.154C559.581 500.651 558.363 500.4 556.932 500.4C555.347 500.4 554.129 500.758 553.278 501.473C552.428 502.169 552.002 503.387 552.002 505.127C552.002 506.77 552.379 507.979 553.133 508.752C553.887 509.506 555.134 509.883 556.874 509.883C558.247 509.883 559.494 509.622 560.615 509.1V511.507C559.977 511.758 559.291 511.952 558.556 512.087C557.841 512.222 557.039 512.29 556.149 512.29ZM569.711 512.29C567.236 512.29 565.419 511.671 564.259 510.434C563.118 509.197 562.548 507.428 562.548 505.127C562.548 502.826 563.128 501.057 564.288 499.82C565.448 498.583 567.255 497.964 569.711 497.964C572.185 497.964 574.003 498.583 575.163 499.82C576.323 501.057 576.903 502.826 576.903 505.127C576.903 507.428 576.323 509.197 575.163 510.434C574.022 511.671 572.205 512.29 569.711 512.29ZM569.711 509.622C571.161 509.622 572.185 509.274 572.785 508.578C573.403 507.863 573.713 506.712 573.713 505.127C573.713 503.542 573.403 502.401 572.785 501.705C572.185 501.009 571.161 500.661 569.711 500.661C568.28 500.661 567.255 501.009 566.637 501.705C566.037 502.401 565.738 503.542 565.738 505.127C565.738 506.712 566.037 507.863 566.637 508.578C567.255 509.274 568.28 509.622 569.711 509.622ZM579.978 512V498.254H582.878L583.023 499.704C583.7 499.163 584.444 498.737 585.256 498.428C586.068 498.119 586.938 497.964 587.866 497.964C588.852 497.964 589.616 498.128 590.157 498.457C590.718 498.766 591.143 499.201 591.433 499.762C592.071 499.24 592.806 498.815 593.637 498.486C594.469 498.138 595.464 497.964 596.624 497.964C598.21 497.964 599.379 498.37 600.133 499.182C600.887 499.994 601.264 501.241 601.264 502.923V512H598.161V503.242C598.161 502.179 597.939 501.434 597.494 501.009C597.05 500.584 596.325 500.371 595.319 500.371C594.662 500.371 594.034 500.487 593.434 500.719C592.854 500.951 592.352 501.299 591.926 501.763C591.984 501.976 592.023 502.198 592.042 502.43C592.062 502.662 592.071 502.913 592.071 503.184V512H589.142V503.271C589.142 502.266 588.968 501.531 588.62 501.067C588.272 500.603 587.615 500.371 586.648 500.371C585.972 500.371 585.324 500.535 584.705 500.864C584.106 501.173 583.565 501.55 583.081 501.995V512H579.978ZM604.235 512L611.021 492.802H614.24L607.454 512H604.235ZM617.305 512V493.324H630.326V495.789H620.466V501.444H629.253V503.88H620.466V509.564H630.326V512H617.305ZM633.249 512V498.254H636.149L636.323 499.849C636.98 499.424 637.763 499.037 638.672 498.689C639.581 498.341 640.48 498.099 641.369 497.964V500.371C640.828 500.468 640.238 500.613 639.6 500.806C638.981 500.98 638.392 501.183 637.831 501.415C637.27 501.628 636.797 501.85 636.41 502.082V512H633.249ZM643.671 512V498.254H646.571L646.745 499.849C647.402 499.424 648.185 499.037 649.094 498.689C650.002 498.341 650.901 498.099 651.791 497.964V500.371C651.249 500.468 650.66 500.613 650.022 500.806C649.403 500.98 648.813 501.183 648.253 501.415C647.692 501.628 647.218 501.85 646.832 502.082V512H643.671ZM657.507 512.29C656.637 512.29 655.825 512.135 655.071 511.826C654.336 511.517 653.746 511.053 653.302 510.434C652.857 509.796 652.635 509.013 652.635 508.085C652.635 506.77 653.079 505.717 653.969 504.924C654.877 504.112 656.269 503.706 658.145 503.706H662.553V503.097C662.553 502.44 662.446 501.918 662.234 501.531C662.04 501.144 661.673 500.864 661.132 500.69C660.61 500.516 659.836 500.429 658.812 500.429C657.188 500.429 655.67 500.671 654.259 501.154V498.805C654.877 498.554 655.631 498.351 656.521 498.196C657.41 498.041 658.367 497.964 659.392 497.964C661.402 497.964 662.93 498.37 663.974 499.182C665.037 499.994 665.569 501.318 665.569 503.155V512H662.872L662.669 510.608C662.108 511.149 661.412 511.565 660.581 511.855C659.769 512.145 658.744 512.29 657.507 512.29ZM658.348 510.028C659.295 510.028 660.117 509.873 660.813 509.564C661.528 509.235 662.108 508.8 662.553 508.259V505.852H658.203C657.275 505.852 656.598 506.036 656.173 506.403C655.767 506.751 655.564 507.292 655.564 508.027C655.564 508.742 655.805 509.255 656.289 509.564C656.772 509.873 657.458 510.028 658.348 510.028ZM669.074 512V492.454H672.235V499.588C672.834 499.105 673.55 498.718 674.381 498.428C675.212 498.119 676.15 497.964 677.194 497.964C678.934 497.964 680.22 498.38 681.051 499.211C681.882 500.042 682.298 501.338 682.298 503.097V512H679.166V503.242C679.166 502.179 678.934 501.434 678.47 501.009C678.025 500.584 677.242 500.371 676.121 500.371C675.425 500.371 674.719 500.526 674.004 500.835C673.289 501.125 672.699 501.512 672.235 501.995V512H669.074ZM690.799 512.29C689.155 512.29 687.889 511.836 687 510.927C686.13 510.018 685.695 508.684 685.695 506.925V498.254H688.856V506.925C688.856 507.95 689.107 508.704 689.61 509.187C690.112 509.67 690.886 509.912 691.93 509.912C692.703 509.912 693.418 509.767 694.076 509.477C694.733 509.187 695.303 508.8 695.787 508.317V498.254H698.919V512H696.048L695.903 510.579C695.284 511.062 694.549 511.468 693.699 511.797C692.848 512.126 691.881 512.29 690.799 512.29ZM702.605 512V498.254H705.505L705.65 499.704C706.327 499.163 707.071 498.737 707.883 498.428C708.695 498.119 709.565 497.964 710.493 497.964C711.479 497.964 712.243 498.128 712.784 498.457C713.345 498.766 713.77 499.201 714.06 499.762C714.698 499.24 715.433 498.815 716.264 498.486C717.096 498.138 718.091 497.964 719.251 497.964C720.837 497.964 722.006 498.37 722.76 499.182C723.514 499.994 723.891 501.241 723.891 502.923V512H720.788V503.242C720.788 502.179 720.566 501.434 720.121 501.009C719.677 500.584 718.952 500.371 717.946 500.371C717.289 500.371 716.661 500.487 716.061 500.719C715.481 500.951 714.979 501.299 714.553 501.763C714.611 501.976 714.65 502.198 714.669 502.43C714.689 502.662 714.698 502.913 714.698 503.184V512H711.769V503.271C711.769 502.266 711.595 501.531 711.247 501.067C710.899 500.603 710.242 500.371 709.275 500.371C708.599 500.371 707.951 500.535 707.332 500.864C706.733 501.173 706.192 501.55 705.708 501.995V512H702.605ZM726.862 512L733.648 492.802H736.867L730.081 512H726.862ZM739.931 512V493.324H743.092V501.444H752.082V493.324H755.243V512H752.082V503.88H743.092V512H739.931ZM765.866 512.29C763.469 512.29 761.613 511.7 760.298 510.521C758.983 509.342 758.326 507.534 758.326 505.098C758.326 502.894 758.887 501.154 760.008 499.878C761.129 498.602 762.831 497.964 765.112 497.964C767.2 497.964 768.766 498.515 769.81 499.617C770.873 500.7 771.405 502.101 771.405 503.822V506.374H761.342C761.497 507.708 761.98 508.626 762.792 509.129C763.604 509.632 764.841 509.883 766.504 509.883C767.2 509.883 767.915 509.815 768.65 509.68C769.385 509.545 770.023 509.371 770.564 509.158V511.478C769.945 511.749 769.23 511.952 768.418 512.087C767.625 512.222 766.775 512.29 765.866 512.29ZM761.342 504.315H768.621V503.358C768.621 502.411 768.36 501.676 767.838 501.154C767.316 500.613 766.436 500.342 765.199 500.342C763.73 500.342 762.715 500.661 762.154 501.299C761.613 501.937 761.342 502.942 761.342 504.315ZM777.904 512.29C776.783 512.29 775.932 512.019 775.352 511.478C774.772 510.917 774.482 509.999 774.482 508.723V492.454H777.643V508.433C777.643 508.974 777.74 509.342 777.933 509.535C778.127 509.728 778.417 509.825 778.803 509.825C779.267 509.825 779.712 509.767 780.137 509.651V511.942C779.77 512.077 779.412 512.164 779.064 512.203C778.736 512.261 778.349 512.29 777.904 512.29ZM782.751 495.383V492.773H786.202V495.383H782.751ZM783.012 512V500.661H780.924L781.214 498.254H786.173V512H783.012ZM796.443 512.29C793.969 512.29 792.151 511.671 790.991 510.434C789.851 509.197 789.28 507.428 789.28 505.127C789.28 502.826 789.86 501.057 791.02 499.82C792.18 498.583 793.988 497.964 796.443 497.964C798.918 497.964 800.735 498.583 801.895 499.82C803.055 501.057 803.635 502.826 803.635 505.127C803.635 507.428 803.055 509.197 801.895 510.434C800.755 511.671 798.937 512.29 796.443 512.29ZM796.443 509.622C797.893 509.622 798.918 509.274 799.517 508.578C800.136 507.863 800.445 506.712 800.445 505.127C800.445 503.542 800.136 502.401 799.517 501.705C798.918 501.009 797.893 500.661 796.443 500.661C795.013 500.661 793.988 501.009 793.369 501.705C792.77 502.401 792.47 503.542 792.47 505.127C792.47 506.712 792.77 507.863 793.369 508.578C793.988 509.274 795.013 509.622 796.443 509.622ZM811.151 512.29C810.204 512.29 809.295 512.222 808.425 512.087C807.575 511.952 806.869 511.787 806.308 511.594V508.926C806.966 509.177 807.691 509.371 808.483 509.506C809.276 509.641 810.03 509.709 810.745 509.709C811.828 509.709 812.601 509.612 813.065 509.419C813.529 509.226 813.761 508.849 813.761 508.288C813.761 507.882 813.616 507.563 813.326 507.331C813.056 507.099 812.64 506.886 812.079 506.693C811.538 506.5 810.842 506.268 809.991 505.997C809.179 505.726 808.474 505.436 807.874 505.127C807.275 504.798 806.811 504.383 806.482 503.88C806.154 503.377 805.989 502.72 805.989 501.908C805.989 500.651 806.444 499.685 807.352 499.008C808.261 498.312 809.721 497.964 811.731 497.964C812.524 497.964 813.278 498.022 813.993 498.138C814.709 498.254 815.318 498.399 815.82 498.573V501.212C815.279 500.999 814.68 500.835 814.022 500.719C813.384 500.603 812.785 500.545 812.224 500.545C811.219 500.545 810.455 500.632 809.933 500.806C809.431 500.98 809.179 501.328 809.179 501.85C809.179 502.391 809.44 502.778 809.962 503.01C810.504 503.223 811.364 503.522 812.543 503.909C813.626 504.238 814.486 504.586 815.124 504.953C815.762 505.32 816.217 505.765 816.487 506.287C816.777 506.79 816.922 507.447 816.922 508.259C816.922 509.612 816.429 510.627 815.443 511.304C814.457 511.961 813.027 512.29 811.151 512.29ZM820.021 512V493.324H832.723V495.789H823.182V501.444H831.65V503.88H823.182V512H820.021ZM835.965 495.383V492.773H839.416V495.383H835.965ZM836.226 512V500.661H834.138L834.428 498.254H839.387V512H836.226ZM843.074 512V498.254H845.974L846.119 499.704C846.738 499.221 847.472 498.815 848.323 498.486C849.193 498.138 850.15 497.964 851.194 497.964C852.973 497.964 854.268 498.38 855.08 499.211C855.892 500.042 856.298 501.338 856.298 503.097V512H853.166V503.242C853.166 502.179 852.944 501.434 852.499 501.009C852.074 500.584 851.262 500.371 850.063 500.371C849.348 500.371 848.642 500.516 847.946 500.806C847.269 501.096 846.699 501.473 846.235 501.937V512H843.074ZM863.707 512.29C862.837 512.29 862.025 512.135 861.271 511.826C860.536 511.517 859.947 511.053 859.502 510.434C859.057 509.796 858.835 509.013 858.835 508.085C858.835 506.77 859.28 505.717 860.169 504.924C861.078 504.112 862.47 503.706 864.345 503.706H868.753V503.097C868.753 502.44 868.647 501.918 868.434 501.531C868.241 501.144 867.873 500.864 867.332 500.69C866.81 500.516 866.037 500.429 865.012 500.429C863.388 500.429 861.87 500.671 860.459 501.154V498.805C861.078 498.554 861.832 498.351 862.721 498.196C863.61 498.041 864.567 497.964 865.592 497.964C867.603 497.964 869.13 498.37 870.174 499.182C871.237 499.994 871.769 501.318 871.769 503.155V512H869.072L868.869 510.608C868.308 511.149 867.612 511.565 866.781 511.855C865.969 512.145 864.944 512.29 863.707 512.29ZM864.548 510.028C865.495 510.028 866.317 509.873 867.013 509.564C867.728 509.235 868.308 508.8 868.753 508.259V505.852H864.403C863.475 505.852 862.798 506.036 862.373 506.403C861.967 506.751 861.764 507.292 861.764 508.027C861.764 508.742 862.006 509.255 862.489 509.564C862.972 509.873 863.659 510.028 864.548 510.028ZM875.274 512V498.254H878.174L878.319 499.704C878.938 499.221 879.673 498.815 880.523 498.486C881.393 498.138 882.35 497.964 883.394 497.964C885.173 497.964 886.468 498.38 887.28 499.211C888.092 500.042 888.498 501.338 888.498 503.097V512H885.366V503.242C885.366 502.179 885.144 501.434 884.699 501.009C884.274 500.584 883.462 500.371 882.263 500.371C881.548 500.371 880.842 500.516 880.146 500.806C879.47 501.096 878.899 501.473 878.435 501.937V512H875.274ZM898.514 512.29C896.097 512.29 894.27 511.681 893.033 510.463C891.795 509.226 891.177 507.447 891.177 505.127C891.177 502.71 891.853 500.912 893.207 499.733C894.579 498.554 896.406 497.964 898.688 497.964C899.635 497.964 900.428 498.032 901.066 498.167C901.723 498.302 902.351 498.515 902.951 498.805V501.154C901.945 500.651 900.727 500.4 899.297 500.4C897.711 500.4 896.493 500.758 895.643 501.473C894.792 502.169 894.367 503.387 894.367 505.127C894.367 506.77 894.744 507.979 895.498 508.752C896.252 509.506 897.499 509.883 899.239 509.883C900.611 509.883 901.858 509.622 902.98 509.1V511.507C902.342 511.758 901.655 511.952 900.921 512.087C900.205 512.222 899.403 512.29 898.514 512.29ZM912.452 512.29C910.055 512.29 908.199 511.7 906.884 510.521C905.569 509.342 904.912 507.534 904.912 505.098C904.912 502.894 905.473 501.154 906.594 499.878C907.715 498.602 909.417 497.964 911.698 497.964C913.786 497.964 915.352 498.515 916.396 499.617C917.459 500.7 917.991 502.101 917.991 503.822V506.374H907.928C908.083 507.708 908.566 508.626 909.378 509.129C910.19 509.632 911.427 509.883 913.09 509.883C913.786 509.883 914.501 509.815 915.236 509.68C915.971 509.545 916.609 509.371 917.15 509.158V511.478C916.531 511.749 915.816 511.952 915.004 512.087C914.211 512.222 913.361 512.29 912.452 512.29ZM907.928 504.315H915.207V503.358C915.207 502.411 914.946 501.676 914.424 501.154C913.902 500.613 913.022 500.342 911.785 500.342C910.316 500.342 909.301 500.661 908.74 501.299C908.199 501.937 907.928 502.942 907.928 504.315Z" fill="black"/>
<path d="M360 515.625H414.487V517.075H360V515.625ZM414.347 515.625H427.803V517.075H414.347V515.625ZM427.799 515.625H432.99V517.075H427.799V515.625ZM432.981 515.625H445.48V517.075H432.981V515.625ZM445.471 515.625H457.97V517.075H445.471V515.625ZM457.96 515.625H474.026V517.075H457.96V515.625ZM473.281 515.625H547.574V517.075H473.281V515.625ZM547.565 515.625H561.311V517.075H547.565V515.625ZM561.301 515.625H615.487V517.075H561.301V515.625ZM615.478 515.625H631.428V517.075H615.478V515.625ZM631.422 515.625H652.255V517.075H631.422V515.625ZM651.388 515.625H667.251V517.075H651.388V515.625ZM667.247 515.625H738.114V517.075H667.247V515.625ZM738.104 515.625H780.775V517.075H738.104V515.625ZM779.764 515.625H804.882V517.075H779.764V515.625ZM804.742 515.625H818.198V517.075H804.742V515.625ZM818.194 515.625H833.39V517.075H818.194V515.625ZM832.978 515.625H858.009V517.075H832.978V515.625ZM857.588 515.625H873.451V517.075H857.588V515.625ZM873.447 515.625H890.209V517.075H873.447V515.625ZM889.93 515.625H903.676V517.075H889.93V515.625ZM903.665 515.625H919.238V517.075H903.665V515.625Z" fill="black"/>
<a href="https://github.com/Errahum/HeliosFinance">
<rect fill="black" fill-opacity="0" y="-5.6775" width="559.238" height="43.355"/>
</a>
</svg>
