<svg width="711" height="287" viewBox="0 0 711 287" fill="none" xmlns="http://www.w3.org/2000/svg">
<rect width="711" height="287" fill="white"/>
<path d="M175.725 168V119.7H183.9V140.7H207.15V119.7H215.325V168H207.15V147H183.9V168H175.725ZM242.797 168.75C236.597 168.75 231.797 167.225 228.397 164.175C224.997 161.125 223.297 156.45 223.297 150.15C223.297 144.45 224.747 139.95 227.647 136.65C230.547 133.35 234.947 131.7 240.847 131.7C246.247 131.7 250.297 133.125 252.997 135.975C255.747 138.775 257.122 142.4 257.122 146.85V153.45H231.097C231.497 156.9 232.747 159.275 234.847 160.575C236.947 161.875 240.147 162.525 244.447 162.525C246.247 162.525 248.097 162.35 249.997 162C251.897 161.65 253.547 161.2 254.947 160.65V166.65C253.347 167.35 251.497 167.875 249.397 168.225C247.347 168.575 245.147 168.75 242.797 168.75ZM231.097 148.125H249.922V145.65C249.922 143.2 249.247 141.3 247.897 139.95C246.547 138.55 244.272 137.85 241.072 137.85C237.272 137.85 234.647 138.675 233.197 140.325C231.797 141.975 231.097 144.575 231.097 148.125ZM273.93 168.75C271.03 168.75 268.83 168.05 267.33 166.65C265.83 165.2 265.08 162.825 265.08 159.525V117.45H273.255V158.775C273.255 160.175 273.505 161.125 274.005 161.625C274.505 162.125 275.255 162.375 276.255 162.375C277.455 162.375 278.605 162.225 279.705 161.925V167.85C278.755 168.2 277.83 168.425 276.93 168.525C276.08 168.675 275.08 168.75 273.93 168.75ZM286.464 125.025V118.275H295.389V125.025H286.464ZM287.139 168V138.675H281.739L282.489 132.45H295.314V168H287.139ZM321.876 168.75C315.476 168.75 310.776 167.15 307.776 163.95C304.826 160.75 303.351 156.175 303.351 150.225C303.351 144.275 304.851 139.7 307.851 136.5C310.851 133.3 315.526 131.7 321.876 131.7C328.276 131.7 332.976 133.3 335.976 136.5C338.976 139.7 340.476 144.275 340.476 150.225C340.476 156.175 338.976 160.75 335.976 163.95C333.026 167.15 328.326 168.75 321.876 168.75ZM321.876 161.85C325.626 161.85 328.276 160.95 329.826 159.15C331.426 157.3 332.226 154.325 332.226 150.225C332.226 146.125 331.426 143.175 329.826 141.375C328.276 139.575 325.626 138.675 321.876 138.675C318.176 138.675 315.526 139.575 313.926 141.375C312.376 143.175 311.601 146.125 311.601 150.225C311.601 154.325 312.376 157.3 313.926 159.15C315.526 160.95 318.176 161.85 321.876 161.85ZM359.914 168.75C357.464 168.75 355.114 168.575 352.864 168.225C350.664 167.875 348.839 167.45 347.389 166.95V160.05C349.089 160.7 350.964 161.2 353.014 161.55C355.064 161.9 357.014 162.075 358.864 162.075C361.664 162.075 363.664 161.825 364.864 161.325C366.064 160.825 366.664 159.85 366.664 158.4C366.664 157.35 366.289 156.525 365.539 155.925C364.839 155.325 363.764 154.775 362.314 154.275C360.914 153.775 359.114 153.175 356.914 152.475C354.814 151.775 352.989 151.025 351.439 150.225C349.889 149.375 348.689 148.3 347.839 147C346.989 145.7 346.564 144 346.564 141.9C346.564 138.65 347.739 136.15 350.089 134.4C352.439 132.6 356.214 131.7 361.414 131.7C363.464 131.7 365.414 131.85 367.264 132.15C369.114 132.45 370.689 132.825 371.989 133.275V140.1C370.589 139.55 369.039 139.125 367.339 138.825C365.689 138.525 364.139 138.375 362.689 138.375C360.089 138.375 358.114 138.6 356.764 139.05C355.464 139.5 354.814 140.4 354.814 141.75C354.814 143.15 355.489 144.15 356.839 144.75C358.239 145.3 360.464 146.075 363.514 147.075C366.314 147.925 368.539 148.825 370.189 149.775C371.839 150.725 373.014 151.875 373.714 153.225C374.464 154.525 374.839 156.225 374.839 158.325C374.839 161.825 373.564 164.45 371.014 166.2C368.464 167.9 364.764 168.75 359.914 168.75ZM400.139 168V119.7H432.989V126.075H408.314V140.7H430.214V147H408.314V168H400.139ZM441.371 125.025V118.275H450.296V125.025H441.371ZM442.046 168V138.675H436.646L437.396 132.45H450.221V168H442.046ZM459.758 168V132.45H467.258L467.633 136.2C469.233 134.95 471.133 133.9 473.333 133.05C475.583 132.15 478.058 131.7 480.758 131.7C485.358 131.7 488.708 132.775 490.808 134.925C492.908 137.075 493.958 140.425 493.958 144.975V168H485.858V145.35C485.858 142.6 485.283 140.675 484.133 139.575C483.033 138.475 480.933 137.925 477.833 137.925C475.983 137.925 474.158 138.3 472.358 139.05C470.608 139.8 469.133 140.775 467.933 141.975V168H459.758ZM513.119 168.75C510.869 168.75 508.769 168.35 506.819 167.55C504.919 166.75 503.394 165.55 502.244 163.95C501.094 162.3 500.519 160.275 500.519 157.875C500.519 154.475 501.669 151.75 503.969 149.7C506.319 147.6 509.919 146.55 514.769 146.55H526.169V144.975C526.169 143.275 525.894 141.925 525.344 140.925C524.844 139.925 523.894 139.2 522.494 138.75C521.144 138.3 519.144 138.075 516.494 138.075C512.294 138.075 508.369 138.7 504.719 139.95V133.875C506.319 133.225 508.269 132.7 510.569 132.3C512.869 131.9 515.344 131.7 517.994 131.7C523.194 131.7 527.144 132.75 529.844 134.85C532.594 136.95 533.969 140.375 533.969 145.125V168H526.994L526.469 164.4C525.019 165.8 523.219 166.875 521.069 167.625C518.969 168.375 516.319 168.75 513.119 168.75ZM515.294 162.9C517.744 162.9 519.869 162.5 521.669 161.7C523.519 160.85 525.019 159.725 526.169 158.325V152.1H514.919C512.519 152.1 510.769 152.575 509.669 153.525C508.619 154.425 508.094 155.825 508.094 157.725C508.094 159.575 508.719 160.9 509.969 161.7C511.219 162.5 512.994 162.9 515.294 162.9ZM543.035 168V132.45H550.535L550.91 136.2C552.51 134.95 554.41 133.9 556.61 133.05C558.86 132.15 561.335 131.7 564.035 131.7C568.635 131.7 571.985 132.775 574.085 134.925C576.185 137.075 577.235 140.425 577.235 144.975V168H569.135V145.35C569.135 142.6 568.56 140.675 567.41 139.575C566.31 138.475 564.21 137.925 561.11 137.925C559.26 137.925 557.435 138.3 555.635 139.05C553.885 139.8 552.41 140.775 551.21 141.975V168H543.035ZM603.137 168.75C596.887 168.75 592.162 167.175 588.962 164.025C585.762 160.825 584.162 156.225 584.162 150.225C584.162 143.975 585.912 139.325 589.412 136.275C592.962 133.225 597.687 131.7 603.587 131.7C606.037 131.7 608.087 131.875 609.737 132.225C611.437 132.575 613.062 133.125 614.612 133.875V139.95C612.012 138.65 608.862 138 605.162 138C601.062 138 597.912 138.925 595.712 140.775C593.512 142.575 592.412 145.725 592.412 150.225C592.412 154.475 593.387 157.6 595.337 159.6C597.287 161.55 600.512 162.525 605.012 162.525C608.562 162.525 611.787 161.85 614.687 160.5V166.725C613.037 167.375 611.262 167.875 609.362 168.225C607.512 168.575 605.437 168.75 603.137 168.75ZM639.184 168.75C632.984 168.75 628.184 167.225 624.784 164.175C621.384 161.125 619.684 156.45 619.684 150.15C619.684 144.45 621.134 139.95 624.034 136.65C626.934 133.35 631.334 131.7 637.234 131.7C642.634 131.7 646.684 133.125 649.384 135.975C652.134 138.775 653.509 142.4 653.509 146.85V153.45H627.484C627.884 156.9 629.134 159.275 631.234 160.575C633.334 161.875 636.534 162.525 640.834 162.525C642.634 162.525 644.484 162.35 646.384 162C648.284 161.65 649.934 161.2 651.334 160.65V166.65C649.734 167.35 647.884 167.875 645.784 168.225C643.734 168.575 641.534 168.75 639.184 168.75ZM627.484 148.125H646.309V145.65C646.309 143.2 645.634 141.3 644.284 139.95C642.934 138.55 640.659 137.85 637.459 137.85C633.659 137.85 631.034 138.675 629.584 140.325C628.184 141.975 627.484 144.575 627.484 148.125Z" fill="black"/>
<path d="M108 100.938C99.483 100.938 91.1574 103.463 84.0758 108.195C76.9942 112.927 71.4747 119.652 68.2154 127.521C64.9561 135.389 64.1034 144.048 65.7649 152.401C67.4265 160.754 71.5278 168.427 77.5502 174.45C83.5726 180.472 91.2456 184.573 99.5989 186.235C107.952 187.897 116.611 187.044 124.479 183.785C132.348 180.525 139.073 175.006 143.805 167.924C148.537 160.843 151.062 152.517 151.062 144C151.05 132.583 146.51 121.637 138.436 113.564C130.363 105.49 119.417 100.95 108 100.938ZM108 180.437C100.793 180.437 93.7485 178.3 87.7564 174.297C81.7643 170.293 77.094 164.602 74.3361 157.944C71.5783 151.286 70.8567 143.96 72.2626 136.891C73.6686 129.823 77.1389 123.331 82.2348 118.235C87.3307 113.139 93.8232 109.669 100.891 108.263C107.96 106.857 115.286 107.578 121.944 110.336C128.602 113.094 134.293 117.764 138.297 123.756C142.3 129.749 144.438 136.793 144.438 144C144.427 153.66 140.584 162.922 133.753 169.753C126.922 176.584 117.66 180.427 108 180.437ZM124.562 152.281C124.562 155.356 123.341 158.305 121.167 160.479C118.993 162.654 116.044 163.875 112.969 163.875H111.312V167.187C111.312 168.066 110.964 168.909 110.342 169.53C109.721 170.151 108.879 170.5 108 170.5C107.121 170.5 106.279 170.151 105.658 169.53C105.036 168.909 104.688 168.066 104.688 167.187V163.875H98.0625C97.184 163.875 96.3414 163.526 95.7202 162.905C95.099 162.284 94.75 161.441 94.75 160.562C94.75 159.684 95.099 158.841 95.7202 158.22C96.3414 157.599 97.184 157.25 98.0625 157.25H112.969C114.287 157.25 115.55 156.727 116.482 155.795C117.414 154.863 117.938 153.599 117.938 152.281C117.938 150.963 117.414 149.7 116.482 148.768C115.55 147.836 114.287 147.312 112.969 147.312H103.031C99.9564 147.312 97.0075 146.091 94.8332 143.917C92.659 141.743 91.4375 138.794 91.4375 135.719C91.4375 132.644 92.659 129.695 94.8332 127.521C97.0075 125.346 99.9564 124.125 103.031 124.125H104.688V120.812C104.688 119.934 105.036 119.091 105.658 118.47C106.279 117.849 107.121 117.5 108 117.5C108.879 117.5 109.721 117.849 110.342 118.47C110.964 119.091 111.312 119.934 111.312 120.812V124.125H117.938C118.816 124.125 119.659 124.474 120.28 125.095C120.901 125.716 121.25 126.559 121.25 127.437C121.25 128.316 120.901 129.159 120.28 129.78C119.659 130.401 118.816 130.75 117.938 130.75H103.031C101.713 130.75 100.45 131.273 99.5178 132.205C98.586 133.137 98.0625 134.401 98.0625 135.719C98.0625 137.037 98.586 138.3 99.5178 139.232C100.45 140.164 101.713 140.687 103.031 140.687H112.969C116.044 140.687 118.993 141.909 121.167 144.083C123.341 146.257 124.562 149.206 124.562 152.281Z" fill="black"/>
<path d="M108 100.938C99.483 100.938 91.1574 103.463 84.0758 108.195C76.9942 112.927 71.4747 119.652 68.2154 127.521C64.9561 135.389 64.1034 144.048 65.7649 152.401C67.4265 160.754 71.5278 168.427 77.5502 174.45C83.5726 180.472 91.2456 184.573 99.5989 186.235C107.952 187.897 116.611 187.044 124.479 183.785C132.348 180.525 139.073 175.006 143.805 167.924C148.537 160.843 151.062 152.517 151.062 144C151.05 132.583 146.51 121.637 138.436 113.564C130.363 105.49 119.417 100.95 108 100.938ZM108 180.437C100.793 180.437 93.7485 178.3 87.7564 174.297C81.7643 170.293 77.094 164.602 74.3361 157.944C71.5783 151.286 70.8567 143.96 72.2626 136.891C73.6686 129.823 77.1389 123.331 82.2348 118.235C87.3307 113.139 93.8232 109.669 100.891 108.263C107.96 106.857 115.286 107.578 121.944 110.336C128.602 113.094 134.293 117.764 138.297 123.756C142.3 129.749 144.438 136.793 144.438 144C144.427 153.66 140.584 162.922 133.753 169.753C126.922 176.584 117.66 180.427 108 180.437ZM124.562 152.281C124.562 155.356 123.341 158.305 121.167 160.479C118.993 162.654 116.044 163.875 112.969 163.875H111.312V167.187C111.312 168.066 110.964 168.909 110.342 169.53C109.721 170.151 108.879 170.5 108 170.5C107.121 170.5 106.279 170.151 105.658 169.53C105.036 168.909 104.688 168.066 104.688 167.187V163.875H98.0625C97.184 163.875 96.3414 163.526 95.7202 162.905C95.099 162.284 94.75 161.441 94.75 160.562C94.75 159.684 95.099 158.841 95.7202 158.22C96.3414 157.599 97.184 157.25 98.0625 157.25H112.969C114.287 157.25 115.55 156.727 116.482 155.795C117.414 154.863 117.938 153.599 117.938 152.281C117.938 150.963 117.414 149.7 116.482 148.768C115.55 147.836 114.287 147.312 112.969 147.312H103.031C99.9564 147.312 97.0075 146.091 94.8332 143.917C92.659 141.743 91.4375 138.794 91.4375 135.719C91.4375 132.644 92.659 129.695 94.8332 127.521C97.0075 125.346 99.9564 124.125 103.031 124.125H104.688V120.812C104.688 119.934 105.036 119.091 105.658 118.47C106.279 117.849 107.121 117.5 108 117.5C108.879 117.5 109.721 117.849 110.342 118.47C110.964 119.091 111.312 119.934 111.312 120.812V124.125H117.938C118.816 124.125 119.659 124.474 120.28 125.095C120.901 125.716 121.25 126.559 121.25 127.437C121.25 128.316 120.901 129.159 120.28 129.78C119.659 130.401 118.816 130.75 117.938 130.75H103.031C101.713 130.75 100.45 131.273 99.5178 132.205C98.586 133.137 98.0625 134.401 98.0625 135.719C98.0625 137.037 98.586 138.3 99.5178 139.232C100.45 140.164 101.713 140.687 103.031 140.687H112.969C116.044 140.687 118.993 141.909 121.167 144.083C123.341 146.257 124.562 149.206 124.562 152.281Z" stroke="black"/>
</svg>
